<svg width="300" height="300" viewBox="0 0 300 300" fill="none" xmlns="http://www.w3.org/2000/svg">
<circle cx="150" cy="150" r="150" fill="#0A0A0B"/>
<path d="M111.479 84.8426L108.071 70.5948H161.682C174.129 70.5948 184.304 72.8416 192.206 77.335C200.16 81.7768 206.048 87.7938 209.87 95.3861C213.692 102.978 215.603 111.449 215.603 120.797C215.603 130.146 213.692 138.642 209.87 146.286C206.1 153.93 200.263 160.024 192.361 164.569C184.459 169.063 174.336 171.309 161.992 171.309H161.372V154.265C169.894 154.265 176.737 152.793 181.902 149.85C187.067 146.906 190.812 142.929 193.136 137.919C195.512 132.857 196.7 127.15 196.7 120.797C196.7 114.444 195.512 108.763 193.136 103.753C190.812 98.7433 187.041 94.818 181.825 91.9773C176.608 89.085 169.687 87.6389 161.062 87.6389H127.284L111.479 84.8426Z" fill="#00FF85"/>
<path d="M192.359 233.048C186.368 233.048 181.099 231.292 176.554 227.78C172.061 224.268 168.549 218.871 166.018 211.588L137.508 130.087L131.93 117.072L127.282 104.986C125.164 99.5111 122.892 95.405 120.464 92.6676C118.088 89.9303 115.196 88.3033 111.787 87.7869C108.378 87.2704 104.143 87.6319 99.0815 88.8715L94.4332 72.7571C95.3628 72.3439 97.0414 71.8791 99.4689 71.3626C101.896 70.8461 104.66 70.5879 107.758 70.5879C116.281 70.5879 123.408 72.8088 129.141 77.2505C134.874 81.6923 139.419 88.4583 142.776 97.5484L183.372 207.25C184.095 209.264 185.051 211.278 186.238 213.293C187.426 215.255 189.57 216.237 192.669 216.237C193.288 216.237 194.037 216.185 194.915 216.082C195.845 215.978 196.542 215.927 197.007 215.927L201.036 232.041C199.538 232.403 198.04 232.661 196.542 232.816C195.096 233.022 193.702 233.1 192.359 233.048ZM88.2354 231.421L134.719 105.296L142.156 140.003H139.677L108.068 231.421H88.2354Z" fill="#00FF85"/>
<path d="M111.479 84.8426L108.071 70.5948H161.682C174.129 70.5948 184.304 72.8416 192.206 77.335C200.16 81.7768 206.048 87.7938 209.87 95.3861C213.692 102.978 215.603 111.449 215.603 120.797C215.603 130.146 213.692 138.642 209.87 146.286C206.1 153.93 200.263 160.024 192.361 164.569C184.459 169.063 174.336 171.309 161.992 171.309H161.372V154.265C169.894 154.265 176.737 152.793 181.902 149.85C187.067 146.906 190.812 142.929 193.136 137.919C195.512 132.857 196.7 127.15 196.7 120.797C196.7 114.444 195.512 108.763 193.136 103.753C190.812 98.7433 187.041 94.818 181.825 91.9773C176.608 89.085 169.687 87.6389 161.062 87.6389H127.284L111.479 84.8426Z" stroke="#00FF85" stroke-width="0.5"/>
<path d="M192.359 233.048C186.368 233.048 181.099 231.292 176.554 227.78C172.061 224.268 168.549 218.871 166.018 211.588L137.508 130.087L131.93 117.072L127.282 104.986C125.164 99.5111 122.892 95.405 120.464 92.6676C118.088 89.9303 115.196 88.3033 111.787 87.7869C108.378 87.2704 104.143 87.6319 99.0815 88.8715L94.4332 72.7571C95.3628 72.3439 97.0414 71.8791 99.4689 71.3626C101.896 70.8461 104.66 70.5879 107.758 70.5879C116.281 70.5879 123.408 72.8088 129.141 77.2505C134.874 81.6923 139.419 88.4583 142.776 97.5484L183.372 207.25C184.095 209.264 185.051 211.278 186.238 213.293C187.426 215.255 189.57 216.237 192.669 216.237C193.288 216.237 194.037 216.185 194.915 216.082C195.845 215.978 196.542 215.927 197.007 215.927L201.036 232.041C199.538 232.403 198.04 232.661 196.542 232.816C195.096 233.022 193.702 233.1 192.359 233.048ZM88.2354 231.421L134.719 105.296L142.156 140.003H139.677L108.068 231.421H88.2354Z" stroke="#00FF85" stroke-width="0.5"/>
</svg>
