<svg viewBox="0 0 133 133" fill="none" xmlns="http://www.w3.org/2000/svg">
<path d="M66.5 0L66.5129 66.4346L91.9486 5.06199L66.537 66.4448L113.522 19.4774L66.5552 66.463L127.938 41.0514L66.5654 66.4871L133 66.5L66.5654 66.5129L127.938 91.9486L66.5552 66.537L113.522 113.522L66.537 66.5552L91.9486 127.938L66.5129 66.5654L66.5 133L66.4871 66.5654L41.0514 127.938L66.463 66.5552L19.4774 113.522L66.4448 66.537L5.06199 91.9486L66.4346 66.5129L0 66.5L66.4346 66.4871L5.06199 41.0514L66.4448 66.463L19.4774 19.4774L66.463 66.4448L41.0514 5.06199L66.4871 66.4346L66.5 0Z" fill="#F0C3D2" stroke="white" stroke-width="4"/>
</svg>
