<svg viewBox="0 0 449 448" fill="none" xmlns="http://www.w3.org/2000/svg">
<path d="M0 298.667L75 298.667C116.237 298.667 149.667 332.096 149.667 373.333C149.667 414.57 116.237 448 75 448L-3.05188e-05 448L0 298.667Z" fill="#9B51E0"/>
<path d="M150.168 299.167L298.834 299.167C298.563 380.967 231.973 447.23 150.168 447.499L150.168 299.167Z" fill="#CBEE4C" stroke="#CBEE4C"/>
<path d="M299.332 298.667C381.807 298.667 448.999 365.525 448.999 448L299.332 448L299.332 298.667Z" fill="#F0C3D2"/>
<path d="M0 149.333L149.667 149.334L149.667 298.667C67.1921 298.667 -1.6855e-05 231.808 0 149.333Z" fill="#9B51E0"/>
<path d="M298.834 298.166C217.03 297.897 150.44 231.634 150.169 149.834C231.973 150.104 298.563 216.366 298.834 298.166Z" fill="#56CCF2" stroke="#56CCF2"/>
<path d="M299.332 298.667L299.332 149.334C381.807 149.334 448.999 216.192 448.999 298.667L299.332 298.667Z" fill="#CBEE4C"/>
<path d="M0 0L149.667 2.61686e-05C149.667 82.4745 82.4745 149.333 -3.05188e-05 149.333L0 0Z" fill="#56CCF2"/>
<path d="M149.668 74.6667C149.668 33.4294 183.097 5.84498e-06 224.335 1.30551e-05L299.335 2.61686e-05L299.335 149.333L224.335 149.333C183.097 149.333 149.668 115.904 149.668 74.6667Z" fill="#219653"/>
<rect x="299.332" width="149.667" height="149.333" rx="74.6667" fill="#F2994A"/>
</svg>
