<svg viewBox="0 0 449 448" fill="none" xmlns="http://www.w3.org/2000/svg">
<path d="M0.5 299.167L149.166 299.167C148.895 380.967 82.3046 447.23 0.49997 447.499L0.5 299.167Z" fill="#CBEE4C" stroke="#CBEE4C"/>
<path d="M149.668 298.667C232.142 298.667 299.335 365.525 299.335 448L149.668 448L149.668 298.667Z" fill="#F0C3D2"/>
<path d="M299.332 298.667L374.332 298.667C415.569 298.667 448.999 332.096 448.999 373.333C448.999 414.57 415.569 448 374.332 448L299.332 448L299.332 298.667Z" fill="#FF6B6B"/>
<rect y="149.333" width="149.667" height="149.333" rx="74.6667" fill="#F2994A"/>
<path d="M149.668 149.333L299.335 149.334L299.335 298.667C216.86 298.667 149.668 231.808 149.668 149.333Z" fill="#FF6B6B"/>
<path d="M299.332 298.667L299.332 149.334C381.807 149.334 448.999 216.192 448.999 298.667L299.332 298.667Z" fill="#CBEE4C"/>
<path d="M0 0L149.667 2.61686e-05C149.667 82.4745 82.4745 149.333 -3.05188e-05 149.333L0 0Z" fill="#56CCF2"/>
<path d="M149.668 74.6667C149.668 33.4294 183.097 5.84498e-06 224.335 1.30551e-05L299.335 2.61686e-05L299.335 149.333L224.335 149.333C183.097 149.333 149.668 115.904 149.668 74.6667Z" fill="#219653"/>
<path d="M448.498 148.833C366.694 148.563 300.104 82.3006 299.833 0.500825C381.637 0.7703 448.227 67.0328 448.498 148.833Z" fill="#56CCF2" stroke="#56CCF2"/>
</svg>
