<svg  viewBox="0 0 95 95" fill="none" xmlns="http://www.w3.org/2000/svg">
<path d="M46.2324 1.12604C46.4107 -0.375347 48.5893 -0.375347 48.7676 1.12604L50.2621 13.7213C52.1919 29.9853 65.0147 42.8081 81.2785 44.7379L93.8738 46.2324C95.3754 46.4107 95.3754 48.5893 93.8738 48.7676L81.2785 50.2621C65.0147 52.1919 52.1919 65.0147 50.2621 81.2785L48.7676 93.8738C48.5893 95.3754 46.4107 95.3754 46.2324 93.8738L44.7379 81.2785C42.8081 65.0147 29.9853 52.1919 13.7213 50.2621L1.12604 48.7676C-0.375347 48.5893 -0.375347 46.4107 1.12604 46.2324L13.7213 44.7379C29.9853 42.8081 42.8081 29.9853 44.7379 13.7213L46.2324 1.12604Z" fill="#FF6B6B"/>
</svg>
