<svg viewBox="0 0 448 449" fill="none" xmlns="http://www.w3.org/2000/svg">
<path d="M299.168 448.5L299.168 299.834C380.968 300.105 447.231 366.695 447.5 448.5L299.168 448.5Z" fill="#CBEE4C" stroke="#CBEE4C"/>
<path d="M298.668 299.333C298.668 216.859 365.527 149.667 448.001 149.667L448.001 299.334L298.668 299.333Z" fill="#F0C3D2"/>
<path d="M298.668 149.667L298.668 74.6665C298.668 33.4292 332.097 -0.000164336 373.335 -0.000160005C414.572 -0.000155675 448.001 33.4293 448.001 74.6665L448.001 149.667L298.668 149.667Z" fill="#FF6B6B"/>
<path d="M149.332 449L149.332 299.333C231.807 299.333 298.665 366.525 298.665 449L149.332 449Z" fill="#56CCF2"/>
<path d="M223.999 299.334C182.761 299.333 149.332 265.904 149.332 224.667L149.332 149.667L298.665 149.667L298.665 224.667C298.665 265.904 265.236 299.334 223.999 299.334Z" fill="#219653"/>
<path d="M298.165 0.500672C297.895 82.3046 231.633 148.895 149.833 149.166C150.102 67.3617 216.365 0.771476 298.165 0.500672Z" fill="#56CCF2" stroke="#56CCF2"/>
<rect y="449" width="149.667" height="149.333" rx="74.6667" transform="rotate(-90 0 449)" fill="#9B51E0"/>
<path d="M0 299.333L1.12995e-05 149.667L149.333 149.667C149.333 232.141 82.4745 299.334 0 299.333Z" fill="#FF6B6B"/>
<path d="M0 0L149.333 2.61103e-05C149.333 82.4745 82.4745 149.667 -3.05869e-05 149.667L0 0Z" fill="#CBEE4C"/>
</svg>
