<svg width="200" height="200" viewBox="0 0 200 200" fill="none" xmlns="http://www.w3.org/2000/svg">
<g clip-path="url(#clip0_2489_1178)">
<path d="M177.867 141.568C156.162 151.965 137.219 157.09 123.507 159.821C114.134 161.689 110.84 161.647 108.801 161.647C81.2 161.647 58.8178 143.057 58.8178 120.121C58.8178 97.1851 81.1937 78.5954 108.801 78.5954C121.696 78.5954 133.451 82.6575 142.317 89.3188L177.867 72.2655C161.368 55.8489 136.554 45.4043 108.801 45.4043C59.1344 45.4096 18.8667 78.8637 18.8667 120.126C18.8667 161.389 59.1344 194.843 108.801 194.843C136.554 194.843 161.368 184.393 177.867 167.982V141.568Z" fill="white"/>
<path d="M108.801 198C57.1141 198 15.0667 163.067 15.0667 120.126C15.0667 77.1852 57.1141 42.2524 108.801 42.2524C136.668 42.2524 162.901 52.455 180.786 70.2502C181.508 70.9658 181.806 71.9076 181.61 72.8232C181.413 73.7387 180.742 74.5385 179.767 75.0068L144.217 92.0601C142.792 92.7442 140.994 92.5863 139.765 91.6655C131.265 85.2777 120.264 81.7576 108.801 81.7576C83.3343 81.7576 62.6178 98.9688 62.6178 120.126C62.6178 141.284 83.3343 158.495 108.801 158.495H108.934C110.777 158.484 113.887 158.495 122.62 156.753C140.734 153.144 158.683 147.114 175.967 138.832C177.145 138.269 178.589 138.269 179.767 138.832C180.945 139.395 181.667 140.437 181.667 141.568V167.982C181.667 168.724 181.356 169.439 180.786 170.008C162.907 187.798 136.668 198.005 108.801 198.005V198ZM108.801 48.5665C61.3068 48.5665 22.6667 80.6684 22.6667 120.126C22.6667 159.584 61.3068 191.686 108.801 191.686C133.951 191.686 157.663 182.636 174.067 166.819V146.94C157.91 154.175 141.228 159.531 124.394 162.888C114.78 164.804 111.1 164.793 108.928 164.804H108.801C79.148 164.804 55.0177 144.762 55.0177 120.121C55.0177 95.4803 79.1416 75.4383 108.801 75.4383C121.227 75.4383 133.172 78.9847 142.748 85.4672L171.951 71.4604C155.655 56.859 132.893 48.5613 108.801 48.5613V48.5665Z" fill="#222222"/>
<path d="M177.867 52.1444C171.837 46.2776 157.954 34.4018 135.414 28.6086C127.003 26.446 118.067 25.2832 108.801 25.2832C59.1344 25.2832 18.8667 58.7374 18.8667 100C18.8667 141.263 59.1344 174.717 108.801 174.717C136.554 174.717 161.368 164.267 177.867 147.856V128.398C156.751 133.323 138.372 136.99 123.507 139.7C114.742 141.299 112.284 141.526 108.801 141.526C81.2 141.526 58.8178 122.936 58.8178 100C58.8178 77.064 81.1937 58.4743 108.801 58.4743C121.696 58.4743 133.451 62.5364 142.317 69.1977L177.867 52.1444Z" fill="white"/>
<path d="M108.801 177.874C57.1141 177.874 15.0667 142.941 15.0667 99.9998C15.0667 57.0587 57.1141 22.126 108.801 22.126C118.257 22.126 127.592 23.2941 136.541 25.5935C153.458 29.9397 168.747 38.4163 180.761 50.0974C181.496 50.813 181.806 51.7601 181.616 52.6809C181.426 53.6017 180.748 54.412 179.773 54.8803L144.224 71.9337C142.799 72.6177 141 72.4598 139.771 71.539C131.272 65.1513 120.271 61.6312 108.807 61.6312C83.3407 61.6312 62.6241 78.8423 62.6241 99.9998C62.6241 121.157 83.3407 138.368 108.807 138.368C111.847 138.368 113.956 138.211 122.696 136.616C140.639 133.343 158.86 129.555 176.847 125.356C177.987 125.088 179.222 125.282 180.172 125.877C181.122 126.472 181.679 127.403 181.679 128.392V147.85C181.679 148.592 181.369 149.308 180.799 149.876C162.92 167.666 136.681 177.874 108.814 177.874H108.801ZM108.801 28.4401C61.3068 28.4401 22.6667 60.542 22.6667 99.9998C22.6667 139.458 61.3068 171.56 108.801 171.56C133.951 171.56 157.663 162.509 174.067 146.693V132.544C157.517 136.332 140.804 139.768 124.324 142.778C115.413 144.404 112.633 144.677 108.801 144.677C79.148 144.677 55.0177 124.635 55.0177 99.9945C55.0177 75.3538 79.1416 55.3118 108.801 55.3118C121.227 55.3118 133.172 58.8582 142.748 65.3407L171.907 51.355C163.914 44.32 151.532 36.0538 134.293 31.6234C126.072 29.5082 117.497 28.4401 108.801 28.4401Z" fill="#222222"/>
<path d="M142.317 110.676C133.451 117.338 121.696 121.4 108.801 121.4C81.2 121.4 58.8178 102.81 58.8178 79.874C58.8178 56.9381 81.1937 38.3483 108.801 38.3483C121.696 38.3483 133.451 42.4104 142.317 49.0718L177.867 32.0184C161.368 15.6071 136.554 5.15723 108.801 5.15723C59.1344 5.15723 18.8667 38.6114 18.8667 79.874C18.8667 121.137 59.1344 154.591 108.801 154.591C136.554 154.591 161.368 144.141 177.867 127.73L142.317 110.676Z" fill="white"/>
<path d="M108.801 157.748C57.1141 157.748 15.0667 122.815 15.0667 79.8738C15.0667 36.9327 57.1141 2 108.801 2C136.668 2 162.901 12.2025 180.786 29.9977C181.508 30.7133 181.806 31.6552 181.61 32.5707C181.413 33.4863 180.742 34.2861 179.767 34.7544L144.217 51.8077C142.792 52.4917 140.994 52.3339 139.765 51.413C131.266 45.0253 120.264 41.5052 108.801 41.5052C83.3344 41.5052 62.6178 58.7164 62.6178 79.8738C62.6178 101.031 83.3344 118.242 108.801 118.242C120.271 118.242 131.266 114.722 139.765 108.335C140.987 107.414 142.786 107.256 144.217 107.94L179.767 124.993C180.736 125.462 181.413 126.256 181.61 127.177C181.806 128.092 181.502 129.04 180.786 129.75C162.907 147.54 136.668 157.748 108.801 157.748ZM108.801 8.31409C61.3068 8.31409 22.6667 40.416 22.6667 79.8738C22.6667 119.332 61.3068 151.434 108.801 151.434C132.893 151.434 155.655 143.136 171.951 128.534L142.748 114.528C133.172 121.01 121.227 124.557 108.801 124.557C79.148 124.557 55.0177 104.515 55.0177 79.8738C55.0177 55.2331 79.1416 35.1911 108.801 35.1911C121.227 35.1911 133.172 38.7375 142.748 45.22L171.951 31.2132C155.655 16.6119 132.893 8.31409 108.801 8.31409Z" fill="#222222"/>
<path d="M142.317 89.4029V69.2768V49.1506L177.867 32.1025V52.2287V72.3549L142.317 89.4029Z" fill="white"/>
<path d="M142.317 92.56C141.659 92.56 141.006 92.418 140.417 92.1391C139.239 91.5761 138.517 90.5343 138.517 89.403V49.1506C138.517 48.0246 139.239 46.9828 140.417 46.4145L175.967 29.3612C177.145 28.7982 178.589 28.7982 179.767 29.3612C180.945 29.9242 181.667 30.9661 181.667 32.0973V72.3497C181.667 73.4757 180.945 74.5175 179.767 75.0858L144.217 92.1391C143.628 92.4232 142.976 92.56 142.317 92.56ZM146.117 50.9712V83.9308L174.067 70.5238V37.5643L146.117 50.9712Z" fill="#222222"/>
<path d="M18.8667 123.283C16.7703 123.283 15.0667 121.868 15.0667 120.126V79.8738C15.0667 78.1322 16.7703 76.7168 18.8667 76.7168C20.963 76.7168 22.6667 78.1322 22.6667 79.8738V120.126C22.6667 121.868 20.963 123.283 18.8667 123.283Z" fill="#222222"/>
</g>
<defs>
<clipPath id="clip0_2489_1178">
<rect width="166.6" height="196" fill="white" transform="translate(15.0667 2)"/>
</clipPath>
</defs>
</svg>
