<?xml version="1.0" standalone="no"?>
<!DOCTYPE svg PUBLIC "-//W3C//DTD SVG 20010904//EN"
 "http://www.w3.org/TR/2001/REC-SVG-20010904/DTD/svg10.dtd">
<svg version="1.0" xmlns="http://www.w3.org/2000/svg"
 width="200.000000pt" height="200.000000pt" viewBox="0 0 200.000000 200.000000"
 preserveAspectRatio="xMidYMid meet">
<metadata>
Created by potrace 1.14, written by Peter Selinger 2001-2017
</metadata>
<g transform="translate(0.000000,200.000000) scale(0.100000,-0.100000)"
fill="#000000" stroke="none">
<path d="M908 1965 c-299 -49 -556 -221 -676 -453 -75 -144 -77 -158 -77 -512
0 -354 2 -368 77 -512 80 -154 221 -284 401 -368 369 -173 850 -111 1135 145
l52 47 0 207 c0 186 -2 210 -17 223 -25 21 -356 178 -376 178 -9 0 -45 -16
-79 -35 -155 -84 -342 -88 -505 -8 -59 29 -143 101 -143 123 0 20 86 95 144
124 157 78 350 75 504 -9 34 -19 70 -35 79 -35 21 0 376 169 385 184 4 6 8
104 8 218 l0 206 -52 47 c-112 100 -284 185 -453 221 -100 22 -301 26 -407 9z
m428 -80 c54 -14 138 -45 188 -70 90 -44 186 -108 186 -123 0 -5 -62 -39 -139
-76 l-138 -68 -60 30 c-101 52 -166 66 -288 66 -93 -1 -122 -5 -189 -28 -103
-35 -158 -68 -223 -134 -105 -107 -146 -249 -108 -377 24 -83 57 -135 127
-200 109 -101 228 -145 395 -145 113 0 189 17 280 62 l63 31 146 -69 146 -69
-29 -23 c-96 -78 -189 -126 -332 -169 -79 -25 -100 -27 -266 -27 -158 -1 -190
2 -264 22 -198 54 -358 156 -466 297 -103 133 -140 251 -133 415 8 167 65 294
188 421 221 227 582 319 916 234z m404 -428 l0 -163 -47 -23 c-27 -13 -90 -43
-140 -67 l-93 -43 0 165 0 165 133 64 c72 35 135 64 140 64 4 1 7 -72 7 -162z
m-584 122 c83 -11 160 -38 206 -70 25 -18 28 -26 28 -76 0 -48 -2 -55 -17 -50
-10 4 -44 15 -75 27 -215 76 -454 30 -611 -119 -60 -56 -60 -56 -54 -24 30
157 192 288 387 313 30 4 56 8 57 9 1 0 36 -4 79 -10z m85 -219 c35 -11 82
-30 104 -43 39 -22 40 -25 43 -80 2 -31 -1 -57 -6 -57 -5 0 -26 7 -46 15 -106
45 -285 60 -392 34 -79 -19 -189 -74 -237 -118 -24 -23 -47 -41 -50 -41 -17 0
-13 38 9 83 47 95 159 180 275 211 81 22 224 20 300 -4z m-858 -667 c184 -175
417 -264 692 -266 236 -2 428 53 608 175 l58 39 -3 -58 c-3 -57 -3 -58 -63
-106 -170 -138 -447 -213 -686 -187 -320 35 -588 206 -700 445 -15 33 -31 74
-35 90 -6 27 -3 25 25 -16 17 -26 64 -78 104 -116z m-18 -181 c323 -338 933
-387 1328 -106 l47 34 0 -53 c0 -47 -4 -57 -32 -84 -164 -153 -473 -245 -723
-214 -326 40 -584 205 -696 446 -15 33 -30 71 -34 85 -6 24 -5 24 17 -5 12
-16 54 -63 93 -103z"/>
</g>
</svg>
