<svg width="1920" height="1336" viewBox="0 0 1920 1336" fill="none" xmlns="http://www.w3.org/2000/svg">
    <rect x="-45" y="-5" width="134" height="134" stroke="#333333"/>
    <path d="M89 -5H173C200.614 -5 223 17.3858 223 45V129H89V-5Z" stroke="#333333"/>
    <path d="M223 45C223 17.3858 245.386 -5 273 -5H307C334.614 -5 357 17.3858 357 45V129H223V45Z" stroke="#333333"/>
    <path d="M357 -5H441C468.614 -5 491 17.3858 491 45V129H407C379.386 129 357 106.614 357 79V-5Z" stroke="#333333"/>
    <path d="M491 45C491 17.3858 513.386 -5 541 -5H575C602.614 -5 625 17.3858 625 45V79C625 106.614 602.614 129 575 129H491V45Z" stroke="#333333"/>
    <path d="M625 45C625 17.3858 647.386 -5 675 -5H709C736.614 -5 759 17.3858 759 45V79C759 106.614 736.614 129 709 129H675C647.386 129 625 106.614 625 79V45Z" stroke="#333333"/>
    <rect x="759" y="-5" width="134" height="134" stroke="#333333"/>
    <path d="M893 -5H977C1004.61 -5 1027 17.3858 1027 45V129H893V-5Z" stroke="#333333"/>
    <path d="M1027 45C1027 17.3858 1049.39 -5 1077 -5H1111C1138.61 -5 1161 17.3858 1161 45V129H1027V45Z" stroke="#333333"/>
    <path d="M1161 -5H1245C1272.61 -5 1295 17.3858 1295 45V129H1211C1183.39 129 1161 106.614 1161 79V-5Z" stroke="#333333"/>
    <path d="M1295 45C1295 17.3858 1317.39 -5 1345 -5H1379C1406.61 -5 1429 17.3858 1429 45V79C1429 106.614 1406.61 129 1379 129H1295V45Z" stroke="#333333"/>
    <path d="M1429 45C1429 17.3858 1451.39 -5 1479 -5H1513C1540.61 -5 1563 17.3858 1563 45V79C1563 106.614 1540.61 129 1513 129H1479C1451.39 129 1429 106.614 1429 79V45Z" stroke="#333333"/>
    <path d="M1563 45C1563 17.3858 1585.39 -5 1613 -5H1647C1674.61 -5 1697 17.3858 1697 45V129H1563V45Z" stroke="#333333"/>
    <path d="M1697 -5H1781C1808.61 -5 1831 17.3858 1831 45V129H1747C1719.39 129 1697 106.614 1697 79V-5Z" stroke="#333333"/>
    <path d="M1831 45C1831 17.3858 1853.39 -5 1881 -5H1915C1942.61 -5 1965 17.3858 1965 45V79C1965 106.614 1942.61 129 1915 129H1831V45Z" stroke="#333333"/>
    <rect x="-45" y="531" width="134" height="134" stroke="#333333"/>
    <path d="M89 531H173C200.614 531 223 553.386 223 581V665H89V531Z" stroke="#333333"/>
    <path d="M223 581C223 553.386 245.386 531 273 531H307C334.614 531 357 553.386 357 581V665H223V581Z" stroke="#333333"/>
    <path d="M357 531H441C468.614 531 491 553.386 491 581V665H407C379.386 665 357 642.614 357 615V531Z" stroke="#333333"/>
    <path d="M491 581C491 553.386 513.386 531 541 531H575C602.614 531 625 553.386 625 581V615C625 642.614 602.614 665 575 665H491V581Z" stroke="#333333"/>
    <path d="M625 581C625 553.386 647.386 531 675 531H709C736.614 531 759 553.386 759 581V615C759 642.614 736.614 665 709 665H675C647.386 665 625 642.614 625 615V581Z" stroke="#333333"/>
    <rect x="759" y="531" width="134" height="134" stroke="#333333"/>
    <path d="M893 531H977C1004.61 531 1027 553.386 1027 581V665H893V531Z" stroke="#333333"/>
    <path d="M1027 581C1027 553.386 1049.39 531 1077 531H1111C1138.61 531 1161 553.386 1161 581V665H1027V581Z" stroke="#333333"/>
    <path d="M1161 531H1245C1272.61 531 1295 553.386 1295 581V665H1211C1183.39 665 1161 642.614 1161 615V531Z" stroke="#333333"/>
    <path d="M1295 581C1295 553.386 1317.39 531 1345 531H1379C1406.61 531 1429 553.386 1429 581V615C1429 642.614 1406.61 665 1379 665H1295V581Z" stroke="#333333"/>
    <path d="M1429 581C1429 553.386 1451.39 531 1479 531H1513C1540.61 531 1563 553.386 1563 581V615C1563 642.614 1540.61 665 1513 665H1479C1451.39 665 1429 642.614 1429 615V581Z" stroke="#333333"/>
    <path d="M1563 581C1563 553.386 1585.39 531 1613 531H1647C1674.61 531 1697 553.386 1697 581V665H1563V581Z" stroke="#333333"/>
    <path d="M1697 531H1781C1808.61 531 1831 553.386 1831 581V665H1747C1719.39 665 1697 642.614 1697 615V531Z" stroke="#333333"/>
    <path d="M1831 581C1831 553.386 1853.39 531 1881 531H1915C1942.61 531 1965 553.386 1965 581V615C1965 642.614 1942.61 665 1915 665H1831V581Z" stroke="#333333"/>
    <path d="M-45 179C-45 151.386 -22.6142 129 5 129H39C66.6142 129 89 151.386 89 179V213C89 240.614 66.6142 263 39 263H5C-22.6142 263 -45 240.614 -45 213V179Z" stroke="#333333"/>
    <rect x="89" y="129" width="134" height="134" stroke="#333333"/>
    <path d="M223 263L223 179C223 151.386 245.386 129 273 129L357 129L357 263L223 263Z" stroke="#333333"/>
    <path d="M407 263C379.386 263 357 240.614 357 213L357 179C357 151.386 379.386 129 407 129L491 129L491 263L407 263Z" stroke="#333333"/>
    <path d="M491 263L491 179C491 151.386 513.386 129 541 129L625 129L625 213C625 240.614 602.614 263 575 263L491 263Z" stroke="#333333"/>
    <path d="M675 263C647.386 263 625 240.614 625 213L625 179C625 151.386 647.386 129 675 129L709 129C736.614 129 759 151.386 759 179L759 263L675 263Z" stroke="#333333"/>
    <path d="M759 129H843C870.614 129 893 151.386 893 179V263H759V129Z" stroke="#333333"/>
    <path d="M893 179C893 151.386 915.386 129 943 129H977C1004.61 129 1027 151.386 1027 179V263H893V179Z" stroke="#333333"/>
    <path d="M1027 179C1027 151.386 1049.39 129 1077 129H1111C1138.61 129 1161 151.386 1161 179V213C1161 240.614 1138.61 263 1111 263H1077C1049.39 263 1027 240.614 1027 213V179Z" stroke="#333333"/>
    <path d="M1161 129H1245C1272.61 129 1295 151.386 1295 179V263H1211C1183.39 263 1161 240.614 1161 213V129Z" stroke="#333333"/>
    <path d="M1295 179C1295 151.386 1317.39 129 1345 129H1379C1406.61 129 1429 151.386 1429 179V213C1429 240.614 1406.61 263 1379 263H1295V179Z" stroke="#333333"/>
    <path d="M1429 179C1429 151.386 1451.39 129 1479 129H1513C1540.61 129 1563 151.386 1563 179V213C1563 240.614 1540.61 263 1513 263H1429V179Z" stroke="#333333"/>
    <path d="M1563 129H1647C1674.61 129 1697 151.386 1697 179V263H1613C1585.39 263 1563 240.614 1563 213V129Z" stroke="#333333"/>
    <path d="M1697 179C1697 151.386 1719.39 129 1747 129H1781C1808.61 129 1831 151.386 1831 179V213C1831 240.614 1808.61 263 1781 263H1747C1719.39 263 1697 240.614 1697 213V179Z" stroke="#333333"/>
    <rect x="1831" y="129" width="134" height="134" stroke="#333333"/>
    <path d="M-45 1117C-45 1089.39 -22.6142 1067 5 1067H39C66.6142 1067 89 1089.39 89 1117V1151C89 1178.61 66.6142 1201 39 1201H5C-22.6142 1201 -45 1178.61 -45 1151V1117Z" stroke="#333333"/>
    <rect x="89" y="1067" width="134" height="134" stroke="#333333"/>
    <path d="M223 1201L223 1117C223 1089.39 245.386 1067 273 1067L357 1067L357 1201L223 1201Z" stroke="#333333"/>
    <path d="M407 1201C379.386 1201 357 1178.61 357 1151L357 1117C357 1089.39 379.386 1067 407 1067L491 1067L491 1201L407 1201Z" stroke="#333333"/>
    <path d="M491 1201L491 1117C491 1089.39 513.386 1067 541 1067L625 1067L625 1151C625 1178.61 602.614 1201 575 1201L491 1201Z" stroke="#333333"/>
    <path d="M675 1201C647.386 1201 625 1178.61 625 1151L625 1117C625 1089.39 647.386 1067 675 1067L709 1067C736.614 1067 759 1089.39 759 1117L759 1201L675 1201Z" stroke="#333333"/>
    <path d="M759 1067H843C870.614 1067 893 1089.39 893 1117V1201H759V1067Z" stroke="#333333"/>
    <path d="M893 1117C893 1089.39 915.386 1067 943 1067H977C1004.61 1067 1027 1089.39 1027 1117V1201H893V1117Z" stroke="#333333"/>
    <path d="M1027 1117C1027 1089.39 1049.39 1067 1077 1067H1111C1138.61 1067 1161 1089.39 1161 1117V1151C1161 1178.61 1138.61 1201 1111 1201H1077C1049.39 1201 1027 1178.61 1027 1151V1117Z" stroke="#333333"/>
    <path d="M1161 1067H1245C1272.61 1067 1295 1089.39 1295 1117V1201H1211C1183.39 1201 1161 1178.61 1161 1151V1067Z" stroke="#333333"/>
    <path d="M1295 1117C1295 1089.39 1317.39 1067 1345 1067H1379C1406.61 1067 1429 1089.39 1429 1117V1151C1429 1178.61 1406.61 1201 1379 1201H1295V1117Z" stroke="#333333"/>
    <path d="M1429 1117C1429 1089.39 1451.39 1067 1479 1067H1513C1540.61 1067 1563 1089.39 1563 1117V1151C1563 1178.61 1540.61 1201 1513 1201H1429V1117Z" stroke="#333333"/>
    <path d="M1563 1067H1647C1674.61 1067 1697 1089.39 1697 1117V1201H1613C1585.39 1201 1563 1178.61 1563 1151V1067Z" stroke="#333333"/>
    <path d="M1697 1117C1697 1089.39 1719.39 1067 1747 1067H1781C1808.61 1067 1831 1089.39 1831 1117V1151C1831 1178.61 1808.61 1201 1781 1201H1747C1719.39 1201 1697 1178.61 1697 1151V1117Z" stroke="#333333"/>
    <rect x="1831" y="1067" width="134" height="134" stroke="#333333"/>
    <path d="M-45 849C-45 821.386 -22.6142 799 5 799H39C66.6142 799 89 821.386 89 849V883C89 910.614 66.6142 933 39 933H5C-22.6142 933 -45 910.614 -45 883V849Z" stroke="#333333"/>
    <rect x="89" y="799" width="134" height="134" stroke="#333333"/>
    <path d="M223 933L223 849C223 821.386 245.386 799 273 799L357 799L357 933L223 933Z" stroke="#333333"/>
    <path d="M407 933C379.386 933 357 910.614 357 883L357 849C357 821.386 379.386 799 407 799L491 799L491 933L407 933Z" stroke="#333333"/>
    <path d="M491 933L491 849C491 821.386 513.386 799 541 799L625 799L625 883C625 910.614 602.614 933 575 933L491 933Z" stroke="#333333"/>
    <path d="M675 933C647.386 933 625 910.614 625 883L625 849C625 821.386 647.386 799 675 799L709 799C736.614 799 759 821.386 759 849L759 933L675 933Z" stroke="#333333"/>
    <path d="M759 799H843C870.614 799 893 821.386 893 849V933H759V799Z" stroke="#333333"/>
    <path d="M893 849C893 821.386 915.386 799 943 799H977C1004.61 799 1027 821.386 1027 849V933H893V849Z" stroke="#333333"/>
    <path d="M1027 849C1027 821.386 1049.39 799 1077 799H1111C1138.61 799 1161 821.386 1161 849V883C1161 910.614 1138.61 933 1111 933H1077C1049.39 933 1027 910.614 1027 883V849Z" stroke="#333333"/>
    <path d="M1161 799H1245C1272.61 799 1295 821.386 1295 849V933H1211C1183.39 933 1161 910.614 1161 883V799Z" stroke="#333333"/>
    <path d="M1295 849C1295 821.386 1317.39 799 1345 799H1379C1406.61 799 1429 821.386 1429 849V883C1429 910.614 1406.61 933 1379 933H1295V849Z" stroke="#333333"/>
    <path d="M1429 849C1429 821.386 1451.39 799 1479 799H1513C1540.61 799 1563 821.386 1563 849V883C1563 910.614 1540.61 933 1513 933H1429V849Z" stroke="#333333"/>
    <path d="M1563 799H1647C1674.61 799 1697 821.386 1697 849V933H1613C1585.39 933 1563 910.614 1563 883V799Z" stroke="#333333"/>
    <path d="M1697 849C1697 821.386 1719.39 799 1747 799H1781C1808.61 799 1831 821.386 1831 849V883C1831 910.614 1808.61 933 1781 933H1747C1719.39 933 1697 910.614 1697 883V849Z" stroke="#333333"/>
    <rect x="1831" y="799" width="134" height="134" stroke="#333333"/>
    <path d="M89 397L5.00002 397C-22.6142 397 -45 374.614 -45 347L-45 263L89 263L89 397Z" stroke="#333333"/>
    <path d="M89 397L89 313C89 285.386 111.386 263 139 263L223 263L223 347C223 374.614 200.614 397 173 397L89 397Z" stroke="#333333"/>
    <path d="M307 263C334.614 263 357 285.386 357 313L357 347C357 374.614 334.614 397 307 397L273 397C245.386 397 223 374.614 223 347L223 263L307 263Z" stroke="#333333"/>
    <path d="M441 263C468.614 263 491 285.386 491 313L491 347C491 374.614 468.614 397 441 397L357 397L357 263L441 263Z" stroke="#333333"/>
    <rect x="491" y="263" width="134" height="134" stroke="#333333"/>
    <path d="M625 313C625 285.386 647.386 263 675 263H709C736.614 263 759 285.386 759 313V347C759 374.614 736.614 397 709 397H675C647.386 397 625 374.614 625 347V313Z" stroke="#333333"/>
    <path d="M759 313C759 285.386 781.386 263 809 263H843C870.614 263 893 285.386 893 313V397H759V313Z" stroke="#333333"/>
    <path d="M893 263H977C1004.61 263 1027 285.386 1027 313V397H893V263Z" stroke="#333333"/>
    <path d="M1027 263H1111C1138.61 263 1161 285.386 1161 313V397H1077C1049.39 397 1027 374.614 1027 347V263Z" stroke="#333333"/>
    <path d="M1161 313C1161 285.386 1183.39 263 1211 263H1245C1272.61 263 1295 285.386 1295 313V347C1295 374.614 1272.61 397 1245 397H1211C1183.39 397 1161 374.614 1161 347V313Z" stroke="#333333"/>
    <rect x="1295" y="263" width="134" height="134" stroke="#333333"/>
    <path d="M1429 313C1429 285.386 1451.39 263 1479 263H1513C1540.61 263 1563 285.386 1563 313V347C1563 374.614 1540.61 397 1513 397H1429V313Z" stroke="#333333"/>
    <path d="M1563 263H1647C1674.61 263 1697 285.386 1697 313V397H1613C1585.39 397 1563 374.614 1563 347V263Z" stroke="#333333"/>
    <path d="M1697 313C1697 285.386 1719.39 263 1747 263H1781C1808.61 263 1831 285.386 1831 313V347C1831 374.614 1808.61 397 1781 397H1747C1719.39 397 1697 374.614 1697 347V313Z" stroke="#333333"/>
    <path d="M1831 313C1831 285.386 1853.39 263 1881 263H1915C1942.61 263 1965 285.386 1965 313V347C1965 374.614 1942.61 397 1915 397H1831V313Z" stroke="#333333"/>
    <path d="M89 1335L5.00002 1335C-22.6142 1335 -45 1312.61 -45 1285L-45 1201L89 1201L89 1335Z" stroke="#333333"/>
    <path d="M89 1335L89 1251C89 1223.39 111.386 1201 139 1201L223 1201L223 1285C223 1312.61 200.614 1335 173 1335L89 1335Z" stroke="#333333"/>
    <path d="M307 1201C334.614 1201 357 1223.39 357 1251L357 1285C357 1312.61 334.614 1335 307 1335L273 1335C245.386 1335 223 1312.61 223 1285L223 1201L307 1201Z" stroke="#333333"/>
    <path d="M441 1201C468.614 1201 491 1223.39 491 1251L491 1285C491 1312.61 468.614 1335 441 1335L357 1335L357 1201L441 1201Z" stroke="#333333"/>
    <rect x="491" y="1201" width="134" height="134" stroke="#333333"/>
    <path d="M625 1251C625 1223.39 647.386 1201 675 1201H709C736.614 1201 759 1223.39 759 1251V1285C759 1312.61 736.614 1335 709 1335H675C647.386 1335 625 1312.61 625 1285V1251Z" stroke="#333333"/>
    <path d="M759 1251C759 1223.39 781.386 1201 809 1201H843C870.614 1201 893 1223.39 893 1251V1335H759V1251Z" stroke="#333333"/>
    <path d="M893 1201H977C1004.61 1201 1027 1223.39 1027 1251V1335H893V1201Z" stroke="#333333"/>
    <path d="M1027 1201H1111C1138.61 1201 1161 1223.39 1161 1251V1335H1077C1049.39 1335 1027 1312.61 1027 1285V1201Z" stroke="#333333"/>
    <path d="M1161 1251C1161 1223.39 1183.39 1201 1211 1201H1245C1272.61 1201 1295 1223.39 1295 1251V1285C1295 1312.61 1272.61 1335 1245 1335H1211C1183.39 1335 1161 1312.61 1161 1285V1251Z" stroke="#333333"/>
    <rect x="1295" y="1201" width="134" height="134" stroke="#333333"/>
    <path d="M1429 1251C1429 1223.39 1451.39 1201 1479 1201H1513C1540.61 1201 1563 1223.39 1563 1251V1285C1563 1312.61 1540.61 1335 1513 1335H1429V1251Z" stroke="#333333"/>
    <path d="M1563 1201H1647C1674.61 1201 1697 1223.39 1697 1251V1335H1613C1585.39 1335 1563 1312.61 1563 1285V1201Z" stroke="#333333"/>
    <path d="M1697 1251C1697 1223.39 1719.39 1201 1747 1201H1781C1808.61 1201 1831 1223.39 1831 1251V1285C1831 1312.61 1808.61 1335 1781 1335H1747C1719.39 1335 1697 1312.61 1697 1285V1251Z" stroke="#333333"/>
    <path d="M1831 1251C1831 1223.39 1853.39 1201 1881 1201H1915C1942.61 1201 1965 1223.39 1965 1251V1285C1965 1312.61 1942.61 1335 1915 1335H1831V1251Z" stroke="#333333"/>
    <path d="M89 799L5.00002 799C-22.6142 799 -45 776.614 -45 749L-45 665L89 665L89 799Z" stroke="#333333"/>
    <path d="M89 799L89 715C89 687.386 111.386 665 139 665L223 665L223 749C223 776.614 200.614 799 173 799L89 799Z" stroke="#333333"/>
    <path d="M307 665C334.614 665 357 687.386 357 715L357 749C357 776.614 334.614 799 307 799L273 799C245.386 799 223 776.614 223 749L223 665L307 665Z" stroke="#333333"/>
    <path d="M441 665C468.614 665 491 687.386 491 715L491 749C491 776.614 468.614 799 441 799L357 799L357 665L441 665Z" stroke="#333333"/>
    <rect x="491" y="665" width="134" height="134" stroke="#333333"/>
    <path d="M625 715C625 687.386 647.386 665 675 665H709C736.614 665 759 687.386 759 715V749C759 776.614 736.614 799 709 799H675C647.386 799 625 776.614 625 749V715Z" stroke="#333333"/>
    <path d="M759 715C759 687.386 781.386 665 809 665H843C870.614 665 893 687.386 893 715V799H759V715Z" stroke="#333333"/>
    <path d="M893 665H977C1004.61 665 1027 687.386 1027 715V799H893V665Z" stroke="#333333"/>
    <path d="M1027 665H1111C1138.61 665 1161 687.386 1161 715V799H1077C1049.39 799 1027 776.614 1027 749V665Z" stroke="#333333"/>
    <path d="M1161 715C1161 687.386 1183.39 665 1211 665H1245C1272.61 665 1295 687.386 1295 715V749C1295 776.614 1272.61 799 1245 799H1211C1183.39 799 1161 776.614 1161 749V715Z" stroke="#333333"/>
    <rect x="1295" y="665" width="134" height="134" stroke="#333333"/>
    <path d="M1429 715C1429 687.386 1451.39 665 1479 665H1513C1540.61 665 1563 687.386 1563 715V749C1563 776.614 1540.61 799 1513 799H1429V715Z" stroke="#333333"/>
    <path d="M1563 665H1647C1674.61 665 1697 687.386 1697 715V799H1613C1585.39 799 1563 776.614 1563 749V665Z" stroke="#333333"/>
    <path d="M1697 715C1697 687.386 1719.39 665 1747 665H1781C1808.61 665 1831 687.386 1831 715V749C1831 776.614 1808.61 799 1781 799H1747C1719.39 799 1697 776.614 1697 749V715Z" stroke="#333333"/>
    <path d="M1831 715C1831 687.386 1853.39 665 1881 665H1915C1942.61 665 1965 687.386 1965 715V749C1965 776.614 1942.61 799 1915 799H1831V715Z" stroke="#333333"/>
    <path d="M89 1067L5.00002 1067C-22.6142 1067 -45 1044.61 -45 1017L-45 933L89 933L89 1067Z" stroke="#333333"/>
    <path d="M89 1067L89 983C89 955.386 111.386 933 139 933L223 933L223 1017C223 1044.61 200.614 1067 173 1067L89 1067Z" stroke="#333333"/>
    <path d="M307 933C334.614 933 357 955.386 357 983L357 1017C357 1044.61 334.614 1067 307 1067L273 1067C245.386 1067 223 1044.61 223 1017L223 933L307 933Z" stroke="#333333"/>
    <path d="M441 933C468.614 933 491 955.386 491 983L491 1017C491 1044.61 468.614 1067 441 1067L357 1067L357 933L441 933Z" stroke="#333333"/>
    <rect x="491" y="933" width="134" height="134" stroke="#333333"/>
    <path d="M625 983C625 955.386 647.386 933 675 933H709C736.614 933 759 955.386 759 983V1017C759 1044.61 736.614 1067 709 1067H675C647.386 1067 625 1044.61 625 1017V983Z" stroke="#333333"/>
    <path d="M759 983C759 955.386 781.386 933 809 933H843C870.614 933 893 955.386 893 983V1067H759V983Z" stroke="#333333"/>
    <path d="M893 933H977C1004.61 933 1027 955.386 1027 983V1067H893V933Z" stroke="#333333"/>
    <path d="M1027 933H1111C1138.61 933 1161 955.386 1161 983V1067H1077C1049.39 1067 1027 1044.61 1027 1017V933Z" stroke="#333333"/>
    <path d="M1161 983C1161 955.386 1183.39 933 1211 933H1245C1272.61 933 1295 955.386 1295 983V1017C1295 1044.61 1272.61 1067 1245 1067H1211C1183.39 1067 1161 1044.61 1161 1017V983Z" stroke="#333333"/>
    <rect x="1295" y="933" width="134" height="134" stroke="#333333"/>
    <path d="M1429 983C1429 955.386 1451.39 933 1479 933H1513C1540.61 933 1563 955.386 1563 983V1017C1563 1044.61 1540.61 1067 1513 1067H1429V983Z" stroke="#333333"/>
    <path d="M1563 933H1647C1674.61 933 1697 955.386 1697 983V1067H1613C1585.39 1067 1563 1044.61 1563 1017V933Z" stroke="#333333"/>
    <path d="M1697 983C1697 955.386 1719.39 933 1747 933H1781C1808.61 933 1831 955.386 1831 983V1017C1831 1044.61 1808.61 1067 1781 1067H1747C1719.39 1067 1697 1044.61 1697 1017V983Z" stroke="#333333"/>
    <path d="M1831 983C1831 955.386 1853.39 933 1881 933H1915C1942.61 933 1965 955.386 1965 983V1017C1965 1044.61 1942.61 1067 1915 1067H1831V983Z" stroke="#333333"/>
    <path d="M89 397L89 481C89 508.614 66.6142 531 39 531L-45 531L-45 397L89 397Z" stroke="#333333"/>
    <path d="M89 397H173C200.614 397 223 419.386 223 447V531H139C111.386 531 89 508.614 89 481V397Z" stroke="#333333"/>
    <rect x="223" y="397" width="134" height="134" stroke="#333333"/>
    <path d="M491 481C491 508.614 468.614 531 441 531L407 531C379.386 531 357 508.614 357 481L357 397L491 397L491 481Z" stroke="#333333"/>
    <path d="M491 531L491 447C491 419.386 513.386 397 541 397L625 397L625 481C625 508.614 602.614 531 575 531L491 531Z" stroke="#333333"/>
    <path d="M625 447C625 419.386 647.386 397 675 397H709C736.614 397 759 419.386 759 447V481C759 508.614 736.614 531 709 531H675C647.386 531 625 508.614 625 481V447Z" stroke="#333333"/>
    <path d="M759 397H843C870.614 397 893 419.386 893 447V531H759V397Z" stroke="#333333"/>
    <path d="M893 447C893 419.386 915.386 397 943 397H977C1004.61 397 1027 419.386 1027 447V481C1027 508.614 1004.61 531 977 531H893V447Z" stroke="#333333"/>
    <rect x="1027" y="397" width="134" height="134" stroke="#333333"/>
    <path d="M1295 481C1295 508.614 1272.61 531 1245 531L1211 531C1183.39 531 1161 508.614 1161 481L1161 447C1161 419.386 1183.39 397 1211 397L1295 397L1295 481Z" stroke="#333333"/>
    <path d="M1295 447C1295 419.386 1317.39 397 1345 397H1379C1406.61 397 1429 419.386 1429 447V531H1295V447Z" stroke="#333333"/>
    <path d="M1429 397H1513C1540.61 397 1563 419.386 1563 447V531H1479C1451.39 531 1429 508.614 1429 481V397Z" stroke="#333333"/>
    <path d="M1563 447C1563 419.386 1585.39 397 1613 397H1647C1674.61 397 1697 419.386 1697 447V481C1697 508.614 1674.61 531 1647 531H1613C1585.39 531 1563 508.614 1563 481V447Z" stroke="#333333"/>
    <path d="M1697 447C1697 419.386 1719.39 397 1747 397H1781C1808.61 397 1831 419.386 1831 447V481C1831 508.614 1808.61 531 1781 531H1697V447Z" stroke="#333333"/>
    <path d="M1831 447C1831 419.386 1853.39 397 1881 397H1915C1942.61 397 1965 419.386 1965 447V481C1965 508.614 1942.61 531 1915 531H1881C1853.39 531 1831 508.614 1831 481V447Z" stroke="#333333"/>
</svg>
