<svg
    width="400"
    height="400"
    viewBox="0 0 400 400"
    fill="none"
    xmlns="http://www.w3.org/2000/svg"
>
    <path
        d="M198.563 2C97.0125 2 103.35 46.0375 103.35 46.0375L103.475 91.6625H200.375V105.35H64.9625C64.9625 105.35 0 97.975 0 200.45C0 302.9 56.7125 299.275 56.7125 299.275H90.5625V251.725C90.5625 251.725 88.7375 195.013 146.375 195.013H242.475C242.475 195.013 296.475 195.888 296.475 142.825V55.0875C296.475 55.0875 304.675 2 198.563 2ZM145.125 32.675C154.763 32.675 162.562 40.475 162.562 50.1125C162.562 59.75 154.763 67.55 145.125 67.55C142.834 67.5533 140.565 67.1045 138.448 66.2294C136.331 65.3542 134.407 64.0699 132.787 62.45C131.168 60.8301 129.883 58.9065 129.008 56.7894C128.133 54.6723 127.684 52.4034 127.688 50.1125C127.688 40.475 135.488 32.675 145.125 32.675Z"
        fill="url(#paint0_linear_518_30)"
    />
    <path
        d="M201.437 399.913C302.987 399.913 296.65 355.875 296.65 355.875L296.525 310.25H199.625V296.563H335.025C335.025 296.563 400 303.938 400 201.475C400 99.0125 343.287 102.65 343.287 102.65H309.437V150.188C309.437 150.188 311.262 206.9 253.625 206.9H157.525C157.525 206.9 103.525 206.025 103.525 259.088V346.825C103.525 346.825 95.3249 399.913 201.437 399.913ZM254.875 369.238C252.584 369.241 250.315 368.792 248.198 367.917C246.081 367.042 244.157 365.757 242.537 364.138C240.917 362.518 239.633 360.594 238.758 358.477C237.883 356.36 237.434 354.091 237.437 351.8C237.437 342.175 245.237 334.375 254.875 334.375C264.512 334.375 272.312 342.163 272.312 351.8C272.312 361.45 264.512 369.238 254.875 369.238Z"
        fill="url(#paint1_linear_518_30)"
    />
    <defs>
        <linearGradient
            id="paint0_linear_518_30"
            x1="38.4375"
            y1="36.775"
            x2="236.225"
            y2="235.225"
            gradientUnits="userSpaceOnUse"
        >
            <stop stop-color="#387EB8"/>
            <stop offset="1" stop-color="#366994"/>
        </linearGradient>
        <linearGradient
            id="paint1_linear_518_30"
            x1="160.112"
            y1="163.025"
            x2="372.537"
            y2="366.538"
            gradientUnits="userSpaceOnUse"
        >
            <stop stop-color="#FFE052"/>
            <stop offset="1" stop-color="#FFC331"/>
        </linearGradient>
    </defs>
</svg>