<svg width="24" height="24" viewBox="0 0 24 25" fill="none" xmlns="http://www.w3.org/2000/svg">
<path d="M5.00069 11.7757C4.98729 10.663 5.16828 9.76806 5.54367 9.09102C5.92576 8.41398 6.42181 7.92128 7.03182 7.61292C7.64853 7.30457 8.29876 7.15039 8.9825 7.15039C9.66625 7.15039 10.2863 7.30457 10.8427 7.61292C11.4058 7.91458 12.0594 8.37711 12.8034 9.00052C13.3062 9.42284 13.7017 9.72449 13.9899 9.90548C14.2849 10.0798 14.6133 10.1669 14.9753 10.1669C15.5585 10.1669 16.0177 9.95911 16.3529 9.5435C16.688 9.12789 16.8456 8.51788 16.8255 7.71348H18.9974C19.0242 8.82624 18.8465 9.72114 18.4644 10.3982C18.0824 11.0752 17.5829 11.5679 16.9662 11.8763C16.3495 12.1846 15.6993 12.3388 15.0156 12.3388C14.3318 12.3388 13.7084 12.1947 13.1453 11.9064C12.5822 11.6115 11.932 11.1389 11.1946 10.4887C10.712 10.0664 10.3198 9.76806 10.0182 9.59377C9.71653 9.41278 9.38471 9.32229 9.02273 9.32229C8.47975 9.32229 8.03062 9.50998 7.67534 9.88537C7.32006 10.2608 7.15248 10.8909 7.17259 11.7757H5.00069ZM5.00069 17.849C4.98729 16.7362 5.16828 15.8413 5.54367 15.1643C5.92576 14.4872 6.42181 13.9945 7.03182 13.6862C7.64853 13.3778 8.29876 13.2237 8.9825 13.2237C9.66625 13.2237 10.2863 13.3778 10.8427 13.6862C11.4058 13.9878 12.0594 14.4504 12.8034 15.0738C13.3062 15.4961 13.7017 15.7978 13.9899 15.9787C14.2849 16.153 14.6133 16.2402 14.9753 16.2402C15.5585 16.2402 16.0177 16.0324 16.3529 15.6168C16.688 15.2012 16.8456 14.5911 16.8255 13.7867H18.9974C19.0242 14.8995 18.8465 15.7944 18.4644 16.4714C18.0824 17.1485 17.5829 17.6412 16.9662 17.9495C16.3495 18.2579 15.6993 18.4121 15.0156 18.4121C14.3318 18.4121 13.7084 18.268 13.1453 17.9797C12.5822 17.6848 11.932 17.2122 11.1946 16.5619C10.712 16.1396 10.3198 15.8413 10.0182 15.667C9.71653 15.4861 9.38471 15.3956 9.02273 15.3956C8.47975 15.3956 8.03062 15.5832 7.67534 15.9586C7.32006 16.334 7.15248 16.9641 7.17259 17.849H5.00069Z" fill="currentColor"/>
</svg>
