<svg width="600" height="600" viewBox="0 0 600 600" fill="none" xmlns="http://www.w3.org/2000/svg">
<g clip-path="url(#clip0_547_27)">
<g opacity="0.9">
<path d="M49.5 46.75C49.5 48.2688 48.2688 49.5 46.75 49.5C45.2312 49.5 44 48.2688 44 46.75V25.8887L21.1943 48.6943C20.1204 49.7683 18.3796 49.7683 17.3057 48.6943C16.2317 47.6204 16.2317 45.8796 17.3057 44.8057L40.1113 22H19.25C17.7312 22 16.5 20.7688 16.5 19.25C16.5 17.7312 17.7312 16.5 19.25 16.5H46.75L47.0306 16.5148C48.4176 16.6554 49.5 17.826 49.5 19.25V46.75Z" fill="#3f81ff"/>
</g>
<g opacity="0.8">
<path d="M49.5 114.167C49.5 115.731 48.2688 117 46.75 117C45.2312 117 44 115.731 44 114.167V92.6732L21.1943 116.17C20.1204 117.276 18.3796 117.276 17.3057 116.17C16.2317 115.063 16.2317 113.27 17.3057 112.163L40.1113 88.6667H19.25C17.7312 88.6667 16.5 87.3981 16.5 85.8333C16.5 84.2685 17.7312 83 19.25 83H46.75L47.0306 83.0152C48.4176 83.1601 49.5 84.3662 49.5 85.8333V114.167Z" fill="#3f81ff"/>
</g>
<g opacity="0.7">
<path d="M49.5 180.75C49.5 182.269 48.2688 183.5 46.75 183.5C45.2312 183.5 44 182.269 44 180.75V159.889L21.1943 182.694C20.1204 183.768 18.3796 183.768 17.3057 182.694C16.2317 181.62 16.2317 179.88 17.3057 178.806L40.1113 156H19.25C17.7312 156 16.5 154.769 16.5 153.25C16.5 151.731 17.7312 150.5 19.25 150.5H46.75L47.0306 150.515C48.4176 150.655 49.5 151.826 49.5 153.25V180.75Z" fill="#3f81ff"/>
</g>
<g opacity="0.6">
<path d="M49.5 246.75C49.5 248.269 48.2688 249.5 46.75 249.5C45.2312 249.5 44 248.269 44 246.75V225.889L21.1943 248.694C20.1204 249.768 18.3796 249.768 17.3057 248.694C16.2317 247.62 16.2317 245.88 17.3057 244.806L40.1113 222H19.25C17.7312 222 16.5 220.769 16.5 219.25C16.5 217.731 17.7312 216.5 19.25 216.5H46.75L47.0306 216.515C48.4176 216.655 49.5 217.826 49.5 219.25V246.75Z" fill="#3f81ff"/>
</g>
<g opacity="0.5">
<path d="M49.5 314.167C49.5 315.731 48.2688 317 46.75 317C45.2312 317 44 315.731 44 314.167V292.673L21.1943 316.17C20.1204 317.276 18.3796 317.276 17.3057 316.17C16.2317 315.063 16.2317 313.27 17.3057 312.163L40.1113 288.667H19.25C17.7312 288.667 16.5 287.398 16.5 285.833C16.5 284.269 17.7312 283 19.25 283H46.75L47.0306 283.015C48.4176 283.16 49.5 284.366 49.5 285.833V314.167Z" fill="#3f81ff"/>
</g>
<g opacity="0.4">
<path d="M49.5 380.75C49.5 382.269 48.2688 383.5 46.75 383.5C45.2312 383.5 44 382.269 44 380.75V359.889L21.1943 382.694C20.1204 383.768 18.3796 383.768 17.3057 382.694C16.2317 381.62 16.2317 379.88 17.3057 378.806L40.1113 356H19.25C17.7312 356 16.5 354.769 16.5 353.25C16.5 351.731 17.7312 350.5 19.25 350.5H46.75L47.0306 350.515C48.4176 350.655 49.5 351.826 49.5 353.25V380.75Z" fill="#3f81ff"/>
</g>
<g opacity="0.3">
<path d="M49.5 446.75C49.5 448.269 48.2688 449.5 46.75 449.5C45.2312 449.5 44 448.269 44 446.75V425.889L21.1943 448.694C20.1204 449.768 18.3796 449.768 17.3057 448.694C16.2317 447.62 16.2317 445.88 17.3057 444.806L40.1113 422H19.25C17.7312 422 16.5 420.769 16.5 419.25C16.5 417.731 17.7312 416.5 19.25 416.5H46.75L47.0306 416.515C48.4176 416.655 49.5 417.826 49.5 419.25V446.75Z" fill="#3f81ff"/>
</g>
<g opacity="0.3">
<path d="M49.5 514.167C49.5 515.731 48.2688 517 46.75 517C45.2312 517 44 515.731 44 514.167V492.673L21.1943 516.17C20.1204 517.276 18.3796 517.276 17.3057 516.17C16.2317 515.063 16.2317 513.27 17.3057 512.163L40.1113 488.667H19.25C17.7312 488.667 16.5 487.398 16.5 485.833C16.5 484.269 17.7312 483 19.25 483H46.75L47.0306 483.015C48.4176 483.16 49.5 484.366 49.5 485.833V514.167Z" fill="#3f81ff"/>
</g>
<g opacity="0.2">
<path d="M49.5 580.75C49.5 582.269 48.2688 583.5 46.75 583.5C45.2312 583.5 44 582.269 44 580.75V559.889L21.1943 582.694C20.1204 583.768 18.3796 583.768 17.3057 582.694C16.2317 581.62 16.2317 579.88 17.3057 578.806L40.1113 556H19.25C17.7312 556 16.5 554.769 16.5 553.25C16.5 551.731 17.7312 550.5 19.25 550.5H46.75L47.0306 550.515C48.4176 550.655 49.5 551.826 49.5 553.25V580.75Z" fill="#3f81ff"/>
</g>
<g opacity="0.9">
<path d="M117 46.75C117 48.2688 115.731 49.5 114.167 49.5C112.602 49.5 111.333 48.2688 111.333 46.75V25.8887L87.8366 48.6943C86.7301 49.7683 84.9366 49.7683 83.8301 48.6943C82.7236 47.6204 82.7236 45.8796 83.8301 44.8057L107.327 22H85.8333C84.2685 22 83 20.7688 83 19.25C83 17.7312 84.2685 16.5 85.8333 16.5H114.167L114.456 16.5148C115.885 16.6554 117 17.826 117 19.25V46.75Z" fill="#3f81ff"/>
</g>
<g opacity="0.8">
<path d="M117 114.167C117 115.731 115.731 117 114.167 117C112.602 117 111.333 115.731 111.333 114.167V92.6732L87.8366 116.17C86.7301 117.276 84.9366 117.276 83.8301 116.17C82.7236 115.063 82.7236 113.27 83.8301 112.163L107.327 88.6667H85.8333C84.2685 88.6667 83 87.3981 83 85.8333C83 84.2685 84.2685 83 85.8333 83H114.167L114.456 83.0152C115.885 83.1601 117 84.3662 117 85.8333V114.167Z" fill="#3f81ff"/>
</g>
<g opacity="0.7">
<path d="M117 180.75C117 182.269 115.731 183.5 114.167 183.5C112.602 183.5 111.333 182.269 111.333 180.75V159.889L87.8366 182.694C86.7301 183.768 84.9366 183.768 83.8301 182.694C82.7236 181.62 82.7236 179.88 83.8301 178.806L107.327 156H85.8333C84.2685 156 83 154.769 83 153.25C83 151.731 84.2685 150.5 85.8333 150.5H114.167L114.456 150.515C115.885 150.655 117 151.826 117 153.25V180.75Z" fill="#3f81ff"/>
</g>
<g opacity="0.6">
<path d="M117 246.75C117 248.269 115.731 249.5 114.167 249.5C112.602 249.5 111.333 248.269 111.333 246.75V225.889L87.8366 248.694C86.7301 249.768 84.9366 249.768 83.8301 248.694C82.7236 247.62 82.7236 245.88 83.8301 244.806L107.327 222H85.8333C84.2685 222 83 220.769 83 219.25C83 217.731 84.2685 216.5 85.8333 216.5H114.167L114.456 216.515C115.885 216.655 117 217.826 117 219.25V246.75Z" fill="#3f81ff"/>
</g>
<g opacity="0.5">
<path d="M117 314.167C117 315.731 115.731 317 114.167 317C112.602 317 111.333 315.731 111.333 314.167V292.673L87.8366 316.17C86.7301 317.276 84.9366 317.276 83.8301 316.17C82.7236 315.063 82.7236 313.27 83.8301 312.163L107.327 288.667H85.8333C84.2685 288.667 83 287.398 83 285.833C83 284.269 84.2685 283 85.8333 283H114.167L114.456 283.015C115.885 283.16 117 284.366 117 285.833V314.167Z" fill="#3f81ff"/>
</g>
<g opacity="0.4">
<path d="M117 380.75C117 382.269 115.731 383.5 114.167 383.5C112.602 383.5 111.333 382.269 111.333 380.75V359.889L87.8366 382.694C86.7301 383.768 84.9366 383.768 83.8301 382.694C82.7236 381.62 82.7236 379.88 83.8301 378.806L107.327 356H85.8333C84.2685 356 83 354.769 83 353.25C83 351.731 84.2685 350.5 85.8333 350.5H114.167L114.456 350.515C115.885 350.655 117 351.826 117 353.25V380.75Z" fill="#3f81ff"/>
</g>
<g opacity="0.3">
<path d="M117 446.75C117 448.269 115.731 449.5 114.167 449.5C112.602 449.5 111.333 448.269 111.333 446.75V425.889L87.8366 448.694C86.7301 449.768 84.9366 449.768 83.8301 448.694C82.7236 447.62 82.7236 445.88 83.8301 444.806L107.327 422H85.8333C84.2685 422 83 420.769 83 419.25C83 417.731 84.2685 416.5 85.8333 416.5H114.167L114.456 416.515C115.885 416.655 117 417.826 117 419.25V446.75Z" fill="#3f81ff"/>
</g>
<g opacity="0.3">
<path d="M117 514.167C117 515.731 115.731 517 114.167 517C112.602 517 111.333 515.731 111.333 514.167V492.673L87.8366 516.17C86.7301 517.276 84.9366 517.276 83.8301 516.17C82.7236 515.063 82.7236 513.27 83.8301 512.163L107.327 488.667H85.8333C84.2685 488.667 83 487.398 83 485.833C83 484.269 84.2685 483 85.8333 483H114.167L114.456 483.015C115.885 483.16 117 484.366 117 485.833V514.167Z" fill="#3f81ff"/>
</g>
<g opacity="0.2">
<path d="M117 580.75C117 582.269 115.731 583.5 114.167 583.5C112.602 583.5 111.333 582.269 111.333 580.75V559.889L87.8366 582.694C86.7301 583.768 84.9366 583.768 83.8301 582.694C82.7236 581.62 82.7236 579.88 83.8301 578.806L107.327 556H85.8333C84.2685 556 83 554.769 83 553.25C83 551.731 84.2685 550.5 85.8333 550.5H114.167L114.456 550.515C115.885 550.655 117 551.826 117 553.25V580.75Z" fill="#3f81ff"/>
</g>
<g opacity="0.9">
<path d="M183.5 46.75C183.5 48.2688 182.269 49.5 180.75 49.5C179.231 49.5 178 48.2688 178 46.75V25.8887L155.194 48.6943C154.12 49.7683 152.38 49.7683 151.306 48.6943C150.232 47.6204 150.232 45.8796 151.306 44.8057L174.111 22H153.25C151.731 22 150.5 20.7688 150.5 19.25C150.5 17.7312 151.731 16.5 153.25 16.5H180.75L181.031 16.5148C182.418 16.6554 183.5 17.826 183.5 19.25V46.75Z" fill="#3f81ff"/>
</g>
<g opacity="0.8">
<path d="M183.5 114.167C183.5 115.731 182.269 117 180.75 117C179.231 117 178 115.731 178 114.167V92.6732L155.194 116.17C154.12 117.276 152.38 117.276 151.306 116.17C150.232 115.063 150.232 113.27 151.306 112.163L174.111 88.6667H153.25C151.731 88.6667 150.5 87.3981 150.5 85.8333C150.5 84.2685 151.731 83 153.25 83H180.75L181.031 83.0152C182.418 83.1601 183.5 84.3662 183.5 85.8333V114.167Z" fill="#3f81ff"/>
</g>
<g opacity="0.7">
<path d="M183.5 180.75C183.5 182.269 182.269 183.5 180.75 183.5C179.231 183.5 178 182.269 178 180.75V159.889L155.194 182.694C154.12 183.768 152.38 183.768 151.306 182.694C150.232 181.62 150.232 179.88 151.306 178.806L174.111 156H153.25C151.731 156 150.5 154.769 150.5 153.25C150.5 151.731 151.731 150.5 153.25 150.5H180.75L181.031 150.515C182.418 150.655 183.5 151.826 183.5 153.25V180.75Z" fill="#3f81ff"/>
</g>
<g opacity="0.6">
<path d="M183.5 246.75C183.5 248.269 182.269 249.5 180.75 249.5C179.231 249.5 178 248.269 178 246.75V225.889L155.194 248.694C154.12 249.768 152.38 249.768 151.306 248.694C150.232 247.62 150.232 245.88 151.306 244.806L174.111 222H153.25C151.731 222 150.5 220.769 150.5 219.25C150.5 217.731 151.731 216.5 153.25 216.5H180.75L181.031 216.515C182.418 216.655 183.5 217.826 183.5 219.25V246.75Z" fill="#3f81ff"/>
</g>
<g opacity="0.5">
<path d="M183.5 314.167C183.5 315.731 182.269 317 180.75 317C179.231 317 178 315.731 178 314.167V292.673L155.194 316.17C154.12 317.276 152.38 317.276 151.306 316.17C150.232 315.063 150.232 313.27 151.306 312.163L174.111 288.667H153.25C151.731 288.667 150.5 287.398 150.5 285.833C150.5 284.269 151.731 283 153.25 283H180.75L181.031 283.015C182.418 283.16 183.5 284.366 183.5 285.833V314.167Z" fill="#3f81ff"/>
</g>
<g opacity="0.4">
<path d="M183.5 380.75C183.5 382.269 182.269 383.5 180.75 383.5C179.231 383.5 178 382.269 178 380.75V359.889L155.194 382.694C154.12 383.768 152.38 383.768 151.306 382.694C150.232 381.62 150.232 379.88 151.306 378.806L174.111 356H153.25C151.731 356 150.5 354.769 150.5 353.25C150.5 351.731 151.731 350.5 153.25 350.5H180.75L181.031 350.515C182.418 350.655 183.5 351.826 183.5 353.25V380.75Z" fill="#3f81ff"/>
</g>
<g opacity="0.3">
<path d="M183.5 446.75C183.5 448.269 182.269 449.5 180.75 449.5C179.231 449.5 178 448.269 178 446.75V425.889L155.194 448.694C154.12 449.768 152.38 449.768 151.306 448.694C150.232 447.62 150.232 445.88 151.306 444.806L174.111 422H153.25C151.731 422 150.5 420.769 150.5 419.25C150.5 417.731 151.731 416.5 153.25 416.5H180.75L181.031 416.515C182.418 416.655 183.5 417.826 183.5 419.25V446.75Z" fill="#3f81ff"/>
</g>
<g opacity="0.3">
<path d="M183.5 514.167C183.5 515.731 182.269 517 180.75 517C179.231 517 178 515.731 178 514.167V492.673L155.194 516.17C154.12 517.276 152.38 517.276 151.306 516.17C150.232 515.063 150.232 513.27 151.306 512.163L174.111 488.667H153.25C151.731 488.667 150.5 487.398 150.5 485.833C150.5 484.269 151.731 483 153.25 483H180.75L181.031 483.015C182.418 483.16 183.5 484.366 183.5 485.833V514.167Z" fill="#3f81ff"/>
</g>
<g opacity="0.2">
<path d="M183.5 580.75C183.5 582.269 182.269 583.5 180.75 583.5C179.231 583.5 178 582.269 178 580.75V559.889L155.194 582.694C154.12 583.768 152.38 583.768 151.306 582.694C150.232 581.62 150.232 579.88 151.306 578.806L174.111 556H153.25C151.731 556 150.5 554.769 150.5 553.25C150.5 551.731 151.731 550.5 153.25 550.5H180.75L181.031 550.515C182.418 550.655 183.5 551.826 183.5 553.25V580.75Z" fill="#3f81ff"/>
</g>
<g opacity="0.9">
<path d="M249.5 46.75C249.5 48.2688 248.269 49.5 246.75 49.5C245.231 49.5 244 48.2688 244 46.75V25.8887L221.194 48.6943C220.12 49.7683 218.38 49.7683 217.306 48.6943C216.232 47.6204 216.232 45.8796 217.306 44.8057L240.111 22H219.25C217.731 22 216.5 20.7688 216.5 19.25C216.5 17.7312 217.731 16.5 219.25 16.5H246.75L247.031 16.5148C248.418 16.6554 249.5 17.826 249.5 19.25V46.75Z" fill="#3f81ff"/>
</g>
<g opacity="0.8">
<path d="M249.5 114.167C249.5 115.731 248.269 117 246.75 117C245.231 117 244 115.731 244 114.167V92.6732L221.194 116.17C220.12 117.276 218.38 117.276 217.306 116.17C216.232 115.063 216.232 113.27 217.306 112.163L240.111 88.6667H219.25C217.731 88.6667 216.5 87.3981 216.5 85.8333C216.5 84.2685 217.731 83 219.25 83H246.75L247.031 83.0152C248.418 83.1601 249.5 84.3662 249.5 85.8333V114.167Z" fill="#3f81ff"/>
</g>
<g opacity="0.7">
<path d="M249.5 180.75C249.5 182.269 248.269 183.5 246.75 183.5C245.231 183.5 244 182.269 244 180.75V159.889L221.194 182.694C220.12 183.768 218.38 183.768 217.306 182.694C216.232 181.62 216.232 179.88 217.306 178.806L240.111 156H219.25C217.731 156 216.5 154.769 216.5 153.25C216.5 151.731 217.731 150.5 219.25 150.5H246.75L247.031 150.515C248.418 150.655 249.5 151.826 249.5 153.25V180.75Z" fill="#3f81ff"/>
</g>
<g opacity="0.6">
<path d="M249.5 246.75C249.5 248.269 248.269 249.5 246.75 249.5C245.231 249.5 244 248.269 244 246.75V225.889L221.194 248.694C220.12 249.768 218.38 249.768 217.306 248.694C216.232 247.62 216.232 245.88 217.306 244.806L240.111 222H219.25C217.731 222 216.5 220.769 216.5 219.25C216.5 217.731 217.731 216.5 219.25 216.5H246.75L247.031 216.515C248.418 216.655 249.5 217.826 249.5 219.25V246.75Z" fill="#3f81ff"/>
</g>
<g opacity="0.5">
<path d="M249.5 314.167C249.5 315.731 248.269 317 246.75 317C245.231 317 244 315.731 244 314.167V292.673L221.194 316.17C220.12 317.276 218.38 317.276 217.306 316.17C216.232 315.063 216.232 313.27 217.306 312.163L240.111 288.667H219.25C217.731 288.667 216.5 287.398 216.5 285.833C216.5 284.269 217.731 283 219.25 283H246.75L247.031 283.015C248.418 283.16 249.5 284.366 249.5 285.833V314.167Z" fill="#3f81ff"/>
</g>
<g opacity="0.4">
<path d="M249.5 380.75C249.5 382.269 248.269 383.5 246.75 383.5C245.231 383.5 244 382.269 244 380.75V359.889L221.194 382.694C220.12 383.768 218.38 383.768 217.306 382.694C216.232 381.62 216.232 379.88 217.306 378.806L240.111 356H219.25C217.731 356 216.5 354.769 216.5 353.25C216.5 351.731 217.731 350.5 219.25 350.5H246.75L247.031 350.515C248.418 350.655 249.5 351.826 249.5 353.25V380.75Z" fill="#3f81ff"/>
</g>
<g opacity="0.3">
<path d="M249.5 446.75C249.5 448.269 248.269 449.5 246.75 449.5C245.231 449.5 244 448.269 244 446.75V425.889L221.194 448.694C220.12 449.768 218.38 449.768 217.306 448.694C216.232 447.62 216.232 445.88 217.306 444.806L240.111 422H219.25C217.731 422 216.5 420.769 216.5 419.25C216.5 417.731 217.731 416.5 219.25 416.5H246.75L247.031 416.515C248.418 416.655 249.5 417.826 249.5 419.25V446.75Z" fill="#3f81ff"/>
</g>
<g opacity="0.3">
<path d="M249.5 514.167C249.5 515.731 248.269 517 246.75 517C245.231 517 244 515.731 244 514.167V492.673L221.194 516.17C220.12 517.276 218.38 517.276 217.306 516.17C216.232 515.063 216.232 513.27 217.306 512.163L240.111 488.667H219.25C217.731 488.667 216.5 487.398 216.5 485.833C216.5 484.269 217.731 483 219.25 483H246.75L247.031 483.015C248.418 483.16 249.5 484.366 249.5 485.833V514.167Z" fill="#3f81ff"/>
</g>
<g opacity="0.2">
<path d="M249.5 580.75C249.5 582.269 248.269 583.5 246.75 583.5C245.231 583.5 244 582.269 244 580.75V559.889L221.194 582.694C220.12 583.768 218.38 583.768 217.306 582.694C216.232 581.62 216.232 579.88 217.306 578.806L240.111 556H219.25C217.731 556 216.5 554.769 216.5 553.25C216.5 551.731 217.731 550.5 219.25 550.5H246.75L247.031 550.515C248.418 550.655 249.5 551.826 249.5 553.25V580.75Z" fill="#3f81ff"/>
</g>
<g opacity="0.9">
<path d="M317 46.75C317 48.2688 315.731 49.5 314.167 49.5C312.602 49.5 311.333 48.2688 311.333 46.75V25.8887L287.837 48.6943C286.73 49.7683 284.937 49.7683 283.83 48.6943C282.724 47.6204 282.724 45.8796 283.83 44.8057L307.327 22H285.833C284.269 22 283 20.7688 283 19.25C283 17.7312 284.269 16.5 285.833 16.5H314.167L314.456 16.5148C315.885 16.6554 317 17.826 317 19.25V46.75Z" fill="#3f81ff"/>
</g>
<g opacity="0.8">
<path d="M317 114.167C317 115.731 315.731 117 314.167 117C312.602 117 311.333 115.731 311.333 114.167V92.6732L287.837 116.17C286.73 117.276 284.937 117.276 283.83 116.17C282.724 115.063 282.724 113.27 283.83 112.163L307.327 88.6667H285.833C284.269 88.6667 283 87.3981 283 85.8333C283 84.2685 284.269 83 285.833 83H314.167L314.456 83.0152C315.885 83.1601 317 84.3662 317 85.8333V114.167Z" fill="#3f81ff"/>
</g>
<g opacity="0.7">
<path d="M317 180.75C317 182.269 315.731 183.5 314.167 183.5C312.602 183.5 311.333 182.269 311.333 180.75V159.889L287.837 182.694C286.73 183.768 284.937 183.768 283.83 182.694C282.724 181.62 282.724 179.88 283.83 178.806L307.327 156H285.833C284.269 156 283 154.769 283 153.25C283 151.731 284.269 150.5 285.833 150.5H314.167L314.456 150.515C315.885 150.655 317 151.826 317 153.25V180.75Z" fill="#3f81ff"/>
</g>
<g opacity="0.6">
<path d="M317 246.75C317 248.269 315.731 249.5 314.167 249.5C312.602 249.5 311.333 248.269 311.333 246.75V225.889L287.837 248.694C286.73 249.768 284.937 249.768 283.83 248.694C282.724 247.62 282.724 245.88 283.83 244.806L307.327 222H285.833C284.269 222 283 220.769 283 219.25C283 217.731 284.269 216.5 285.833 216.5H314.167L314.456 216.515C315.885 216.655 317 217.826 317 219.25V246.75Z" fill="#3f81ff"/>
</g>
<g opacity="0.5">
<path d="M317 314.167C317 315.731 315.731 317 314.167 317C312.602 317 311.333 315.731 311.333 314.167V292.673L287.837 316.17C286.73 317.276 284.937 317.276 283.83 316.17C282.724 315.063 282.724 313.27 283.83 312.163L307.327 288.667H285.833C284.269 288.667 283 287.398 283 285.833C283 284.269 284.269 283 285.833 283H314.167L314.456 283.015C315.885 283.16 317 284.366 317 285.833V314.167Z" fill="#3f81ff"/>
</g>
<g opacity="0.4">
<path d="M317 380.75C317 382.269 315.731 383.5 314.167 383.5C312.602 383.5 311.333 382.269 311.333 380.75V359.889L287.837 382.694C286.73 383.768 284.937 383.768 283.83 382.694C282.724 381.62 282.724 379.88 283.83 378.806L307.327 356H285.833C284.269 356 283 354.769 283 353.25C283 351.731 284.269 350.5 285.833 350.5H314.167L314.456 350.515C315.885 350.655 317 351.826 317 353.25V380.75Z" fill="#3f81ff"/>
</g>
<g opacity="0.3">
<path d="M317 446.75C317 448.269 315.731 449.5 314.167 449.5C312.602 449.5 311.333 448.269 311.333 446.75V425.889L287.837 448.694C286.73 449.768 284.937 449.768 283.83 448.694C282.724 447.62 282.724 445.88 283.83 444.806L307.327 422H285.833C284.269 422 283 420.769 283 419.25C283 417.731 284.269 416.5 285.833 416.5H314.167L314.456 416.515C315.885 416.655 317 417.826 317 419.25V446.75Z" fill="#3f81ff"/>
</g>
<g opacity="0.3">
<path d="M317 514.167C317 515.731 315.731 517 314.167 517C312.602 517 311.333 515.731 311.333 514.167V492.673L287.837 516.17C286.73 517.276 284.937 517.276 283.83 516.17C282.724 515.063 282.724 513.27 283.83 512.163L307.327 488.667H285.833C284.269 488.667 283 487.398 283 485.833C283 484.269 284.269 483 285.833 483H314.167L314.456 483.015C315.885 483.16 317 484.366 317 485.833V514.167Z" fill="#3f81ff"/>
</g>
<g opacity="0.2">
<path d="M317 580.75C317 582.269 315.731 583.5 314.167 583.5C312.602 583.5 311.333 582.269 311.333 580.75V559.889L287.837 582.694C286.73 583.768 284.937 583.768 283.83 582.694C282.724 581.62 282.724 579.88 283.83 578.806L307.327 556H285.833C284.269 556 283 554.769 283 553.25C283 551.731 284.269 550.5 285.833 550.5H314.167L314.456 550.515C315.885 550.655 317 551.826 317 553.25V580.75Z" fill="#3f81ff"/>
</g>
<g opacity="0.9">
<path d="M383.5 46.75C383.5 48.2688 382.269 49.5 380.75 49.5C379.231 49.5 378 48.2688 378 46.75V25.8887L355.194 48.6943C354.12 49.7683 352.38 49.7683 351.306 48.6943C350.232 47.6204 350.232 45.8796 351.306 44.8057L374.111 22H353.25C351.731 22 350.5 20.7688 350.5 19.25C350.5 17.7312 351.731 16.5 353.25 16.5H380.75L381.031 16.5148C382.418 16.6554 383.5 17.826 383.5 19.25V46.75Z" fill="#3f81ff"/>
</g>
<g opacity="0.8">
<path d="M383.5 114.167C383.5 115.731 382.269 117 380.75 117C379.231 117 378 115.731 378 114.167V92.6732L355.194 116.17C354.12 117.276 352.38 117.276 351.306 116.17C350.232 115.063 350.232 113.27 351.306 112.163L374.111 88.6667H353.25C351.731 88.6667 350.5 87.3981 350.5 85.8333C350.5 84.2685 351.731 83 353.25 83H380.75L381.031 83.0152C382.418 83.1601 383.5 84.3662 383.5 85.8333V114.167Z" fill="#3f81ff"/>
</g>
<g opacity="0.7">
<path d="M383.5 180.75C383.5 182.269 382.269 183.5 380.75 183.5C379.231 183.5 378 182.269 378 180.75V159.889L355.194 182.694C354.12 183.768 352.38 183.768 351.306 182.694C350.232 181.62 350.232 179.88 351.306 178.806L374.111 156H353.25C351.731 156 350.5 154.769 350.5 153.25C350.5 151.731 351.731 150.5 353.25 150.5H380.75L381.031 150.515C382.418 150.655 383.5 151.826 383.5 153.25V180.75Z" fill="#3f81ff"/>
</g>
<g opacity="0.6">
<path d="M383.5 246.75C383.5 248.269 382.269 249.5 380.75 249.5C379.231 249.5 378 248.269 378 246.75V225.889L355.194 248.694C354.12 249.768 352.38 249.768 351.306 248.694C350.232 247.62 350.232 245.88 351.306 244.806L374.111 222H353.25C351.731 222 350.5 220.769 350.5 219.25C350.5 217.731 351.731 216.5 353.25 216.5H380.75L381.031 216.515C382.418 216.655 383.5 217.826 383.5 219.25V246.75Z" fill="#3f81ff"/>
</g>
<g opacity="0.5">
<path d="M383.5 314.167C383.5 315.731 382.269 317 380.75 317C379.231 317 378 315.731 378 314.167V292.673L355.194 316.17C354.12 317.276 352.38 317.276 351.306 316.17C350.232 315.063 350.232 313.27 351.306 312.163L374.111 288.667H353.25C351.731 288.667 350.5 287.398 350.5 285.833C350.5 284.269 351.731 283 353.25 283H380.75L381.031 283.015C382.418 283.16 383.5 284.366 383.5 285.833V314.167Z" fill="#3f81ff"/>
</g>
<g opacity="0.4">
<path d="M383.5 380.75C383.5 382.269 382.269 383.5 380.75 383.5C379.231 383.5 378 382.269 378 380.75V359.889L355.194 382.694C354.12 383.768 352.38 383.768 351.306 382.694C350.232 381.62 350.232 379.88 351.306 378.806L374.111 356H353.25C351.731 356 350.5 354.769 350.5 353.25C350.5 351.731 351.731 350.5 353.25 350.5H380.75L381.031 350.515C382.418 350.655 383.5 351.826 383.5 353.25V380.75Z" fill="#3f81ff"/>
</g>
<g opacity="0.3">
<path d="M383.5 446.75C383.5 448.269 382.269 449.5 380.75 449.5C379.231 449.5 378 448.269 378 446.75V425.889L355.194 448.694C354.12 449.768 352.38 449.768 351.306 448.694C350.232 447.62 350.232 445.88 351.306 444.806L374.111 422H353.25C351.731 422 350.5 420.769 350.5 419.25C350.5 417.731 351.731 416.5 353.25 416.5H380.75L381.031 416.515C382.418 416.655 383.5 417.826 383.5 419.25V446.75Z" fill="#3f81ff"/>
</g>
<g opacity="0.3">
<path d="M383.5 514.167C383.5 515.731 382.269 517 380.75 517C379.231 517 378 515.731 378 514.167V492.673L355.194 516.17C354.12 517.276 352.38 517.276 351.306 516.17C350.232 515.063 350.232 513.27 351.306 512.163L374.111 488.667H353.25C351.731 488.667 350.5 487.398 350.5 485.833C350.5 484.269 351.731 483 353.25 483H380.75L381.031 483.015C382.418 483.16 383.5 484.366 383.5 485.833V514.167Z" fill="#3f81ff"/>
</g>
<g opacity="0.2">
<path d="M383.5 580.75C383.5 582.269 382.269 583.5 380.75 583.5C379.231 583.5 378 582.269 378 580.75V559.889L355.194 582.694C354.12 583.768 352.38 583.768 351.306 582.694C350.232 581.62 350.232 579.88 351.306 578.806L374.111 556H353.25C351.731 556 350.5 554.769 350.5 553.25C350.5 551.731 351.731 550.5 353.25 550.5H380.75L381.031 550.515C382.418 550.655 383.5 551.826 383.5 553.25V580.75Z" fill="#3f81ff"/>
</g>
<g opacity="0.9">
<path d="M449.5 46.75C449.5 48.2688 448.269 49.5 446.75 49.5C445.231 49.5 444 48.2688 444 46.75V25.8887L421.194 48.6943C420.12 49.7683 418.38 49.7683 417.306 48.6943C416.232 47.6204 416.232 45.8796 417.306 44.8057L440.111 22H419.25C417.731 22 416.5 20.7688 416.5 19.25C416.5 17.7312 417.731 16.5 419.25 16.5H446.75L447.031 16.5148C448.418 16.6554 449.5 17.826 449.5 19.25V46.75Z" fill="#3f81ff"/>
</g>
<g opacity="0.8">
<path d="M449.5 114.167C449.5 115.731 448.269 117 446.75 117C445.231 117 444 115.731 444 114.167V92.6732L421.194 116.17C420.12 117.276 418.38 117.276 417.306 116.17C416.232 115.063 416.232 113.27 417.306 112.163L440.111 88.6667H419.25C417.731 88.6667 416.5 87.3981 416.5 85.8333C416.5 84.2685 417.731 83 419.25 83H446.75L447.031 83.0152C448.418 83.1601 449.5 84.3662 449.5 85.8333V114.167Z" fill="#3f81ff"/>
</g>
<g opacity="0.7">
<path d="M449.5 180.75C449.5 182.269 448.269 183.5 446.75 183.5C445.231 183.5 444 182.269 444 180.75V159.889L421.194 182.694C420.12 183.768 418.38 183.768 417.306 182.694C416.232 181.62 416.232 179.88 417.306 178.806L440.111 156H419.25C417.731 156 416.5 154.769 416.5 153.25C416.5 151.731 417.731 150.5 419.25 150.5H446.75L447.031 150.515C448.418 150.655 449.5 151.826 449.5 153.25V180.75Z" fill="#3f81ff"/>
</g>
<g opacity="0.6">
<path d="M449.5 246.75C449.5 248.269 448.269 249.5 446.75 249.5C445.231 249.5 444 248.269 444 246.75V225.889L421.194 248.694C420.12 249.768 418.38 249.768 417.306 248.694C416.232 247.62 416.232 245.88 417.306 244.806L440.111 222H419.25C417.731 222 416.5 220.769 416.5 219.25C416.5 217.731 417.731 216.5 419.25 216.5H446.75L447.031 216.515C448.418 216.655 449.5 217.826 449.5 219.25V246.75Z" fill="#3f81ff"/>
</g>
<g opacity="0.5">
<path d="M449.5 314.167C449.5 315.731 448.269 317 446.75 317C445.231 317 444 315.731 444 314.167V292.673L421.194 316.17C420.12 317.276 418.38 317.276 417.306 316.17C416.232 315.063 416.232 313.27 417.306 312.163L440.111 288.667H419.25C417.731 288.667 416.5 287.398 416.5 285.833C416.5 284.269 417.731 283 419.25 283H446.75L447.031 283.015C448.418 283.16 449.5 284.366 449.5 285.833V314.167Z" fill="#3f81ff"/>
</g>
<g opacity="0.4">
<path d="M449.5 380.75C449.5 382.269 448.269 383.5 446.75 383.5C445.231 383.5 444 382.269 444 380.75V359.889L421.194 382.694C420.12 383.768 418.38 383.768 417.306 382.694C416.232 381.62 416.232 379.88 417.306 378.806L440.111 356H419.25C417.731 356 416.5 354.769 416.5 353.25C416.5 351.731 417.731 350.5 419.25 350.5H446.75L447.031 350.515C448.418 350.655 449.5 351.826 449.5 353.25V380.75Z" fill="#3f81ff"/>
</g>
<g opacity="0.3">
<path d="M449.5 446.75C449.5 448.269 448.269 449.5 446.75 449.5C445.231 449.5 444 448.269 444 446.75V425.889L421.194 448.694C420.12 449.768 418.38 449.768 417.306 448.694C416.232 447.62 416.232 445.88 417.306 444.806L440.111 422H419.25C417.731 422 416.5 420.769 416.5 419.25C416.5 417.731 417.731 416.5 419.25 416.5H446.75L447.031 416.515C448.418 416.655 449.5 417.826 449.5 419.25V446.75Z" fill="#3f81ff"/>
</g>
<g opacity="0.3">
<path d="M449.5 514.167C449.5 515.731 448.269 517 446.75 517C445.231 517 444 515.731 444 514.167V492.673L421.194 516.17C420.12 517.276 418.38 517.276 417.306 516.17C416.232 515.063 416.232 513.27 417.306 512.163L440.111 488.667H419.25C417.731 488.667 416.5 487.398 416.5 485.833C416.5 484.269 417.731 483 419.25 483H446.75L447.031 483.015C448.418 483.16 449.5 484.366 449.5 485.833V514.167Z" fill="#3f81ff"/>
</g>
<g opacity="0.2">
<path d="M449.5 580.75C449.5 582.269 448.269 583.5 446.75 583.5C445.231 583.5 444 582.269 444 580.75V559.889L421.194 582.694C420.12 583.768 418.38 583.768 417.306 582.694C416.232 581.62 416.232 579.88 417.306 578.806L440.111 556H419.25C417.731 556 416.5 554.769 416.5 553.25C416.5 551.731 417.731 550.5 419.25 550.5H446.75L447.031 550.515C448.418 550.655 449.5 551.826 449.5 553.25V580.75Z" fill="#3f81ff"/>
</g>
<g opacity="0.9">
<path d="M517 46.75C517 48.2688 515.731 49.5 514.167 49.5C512.602 49.5 511.333 48.2688 511.333 46.75V25.8887L487.837 48.6943C486.73 49.7683 484.937 49.7683 483.83 48.6943C482.724 47.6204 482.724 45.8796 483.83 44.8057L507.327 22H485.833C484.269 22 483 20.7688 483 19.25C483 17.7312 484.269 16.5 485.833 16.5H514.167L514.456 16.5148C515.885 16.6554 517 17.826 517 19.25V46.75Z" fill="#3f81ff"/>
</g>
<g opacity="0.8">
<path d="M517 114.167C517 115.731 515.731 117 514.167 117C512.602 117 511.333 115.731 511.333 114.167V92.6732L487.837 116.17C486.73 117.276 484.937 117.276 483.83 116.17C482.724 115.063 482.724 113.27 483.83 112.163L507.327 88.6667H485.833C484.269 88.6667 483 87.3981 483 85.8333C483 84.2685 484.269 83 485.833 83H514.167L514.456 83.0152C515.885 83.1601 517 84.3662 517 85.8333V114.167Z" fill="#3f81ff"/>
</g>
<g opacity="0.7">
<path d="M517 180.75C517 182.269 515.731 183.5 514.167 183.5C512.602 183.5 511.333 182.269 511.333 180.75V159.889L487.837 182.694C486.73 183.768 484.937 183.768 483.83 182.694C482.724 181.62 482.724 179.88 483.83 178.806L507.327 156H485.833C484.269 156 483 154.769 483 153.25C483 151.731 484.269 150.5 485.833 150.5H514.167L514.456 150.515C515.885 150.655 517 151.826 517 153.25V180.75Z" fill="#3f81ff"/>
</g>
<g opacity="0.6">
<path d="M517 246.75C517 248.269 515.731 249.5 514.167 249.5C512.602 249.5 511.333 248.269 511.333 246.75V225.889L487.837 248.694C486.73 249.768 484.937 249.768 483.83 248.694C482.724 247.62 482.724 245.88 483.83 244.806L507.327 222H485.833C484.269 222 483 220.769 483 219.25C483 217.731 484.269 216.5 485.833 216.5H514.167L514.456 216.515C515.885 216.655 517 217.826 517 219.25V246.75Z" fill="#3f81ff"/>
</g>
<g opacity="0.5">
<path d="M517 314.167C517 315.731 515.731 317 514.167 317C512.602 317 511.333 315.731 511.333 314.167V292.673L487.837 316.17C486.73 317.276 484.937 317.276 483.83 316.17C482.724 315.063 482.724 313.27 483.83 312.163L507.327 288.667H485.833C484.269 288.667 483 287.398 483 285.833C483 284.269 484.269 283 485.833 283H514.167L514.456 283.015C515.885 283.16 517 284.366 517 285.833V314.167Z" fill="#3f81ff"/>
</g>
<g opacity="0.4">
<path d="M517 380.75C517 382.269 515.731 383.5 514.167 383.5C512.602 383.5 511.333 382.269 511.333 380.75V359.889L487.837 382.694C486.73 383.768 484.937 383.768 483.83 382.694C482.724 381.62 482.724 379.88 483.83 378.806L507.327 356H485.833C484.269 356 483 354.769 483 353.25C483 351.731 484.269 350.5 485.833 350.5H514.167L514.456 350.515C515.885 350.655 517 351.826 517 353.25V380.75Z" fill="#3f81ff"/>
</g>
<g opacity="0.3">
<path d="M517 446.75C517 448.269 515.731 449.5 514.167 449.5C512.602 449.5 511.333 448.269 511.333 446.75V425.889L487.837 448.694C486.73 449.768 484.937 449.768 483.83 448.694C482.724 447.62 482.724 445.88 483.83 444.806L507.327 422H485.833C484.269 422 483 420.769 483 419.25C483 417.731 484.269 416.5 485.833 416.5H514.167L514.456 416.515C515.885 416.655 517 417.826 517 419.25V446.75Z" fill="#3f81ff"/>
</g>
<g opacity="0.3">
<path d="M517 514.167C517 515.731 515.731 517 514.167 517C512.602 517 511.333 515.731 511.333 514.167V492.673L487.837 516.17C486.73 517.276 484.937 517.276 483.83 516.17C482.724 515.063 482.724 513.27 483.83 512.163L507.327 488.667H485.833C484.269 488.667 483 487.398 483 485.833C483 484.269 484.269 483 485.833 483H514.167L514.456 483.015C515.885 483.16 517 484.366 517 485.833V514.167Z" fill="#3f81ff"/>
</g>
<g opacity="0.2">
<path d="M517 580.75C517 582.269 515.731 583.5 514.167 583.5C512.602 583.5 511.333 582.269 511.333 580.75V559.889L487.837 582.694C486.73 583.768 484.937 583.768 483.83 582.694C482.724 581.62 482.724 579.88 483.83 578.806L507.327 556H485.833C484.269 556 483 554.769 483 553.25C483 551.731 484.269 550.5 485.833 550.5H514.167L514.456 550.515C515.885 550.655 517 551.826 517 553.25V580.75Z" fill="#3f81ff"/>
</g>
<g opacity="0.9">
<path d="M583.5 46.75C583.5 48.2688 582.269 49.5 580.75 49.5C579.231 49.5 578 48.2688 578 46.75V25.8887L555.194 48.6943C554.12 49.7683 552.38 49.7683 551.306 48.6943C550.232 47.6204 550.232 45.8796 551.306 44.8057L574.111 22H553.25C551.731 22 550.5 20.7688 550.5 19.25C550.5 17.7312 551.731 16.5 553.25 16.5H580.75L581.031 16.5148C582.418 16.6554 583.5 17.826 583.5 19.25V46.75Z" fill="#3f81ff"/>
</g>
<g opacity="0.8">
<path d="M583.5 114.167C583.5 115.731 582.269 117 580.75 117C579.231 117 578 115.731 578 114.167V92.6732L555.194 116.17C554.12 117.276 552.38 117.276 551.306 116.17C550.232 115.063 550.232 113.27 551.306 112.163L574.111 88.6667H553.25C551.731 88.6667 550.5 87.3981 550.5 85.8333C550.5 84.2685 551.731 83 553.25 83H580.75L581.031 83.0152C582.418 83.1601 583.5 84.3662 583.5 85.8333V114.167Z" fill="#3f81ff"/>
</g>
<g opacity="0.7">
<path d="M583.5 180.75C583.5 182.269 582.269 183.5 580.75 183.5C579.231 183.5 578 182.269 578 180.75V159.889L555.194 182.694C554.12 183.768 552.38 183.768 551.306 182.694C550.232 181.62 550.232 179.88 551.306 178.806L574.111 156H553.25C551.731 156 550.5 154.769 550.5 153.25C550.5 151.731 551.731 150.5 553.25 150.5H580.75L581.031 150.515C582.418 150.655 583.5 151.826 583.5 153.25V180.75Z" fill="#3f81ff"/>
</g>
<g opacity="0.6">
<path d="M583.5 246.75C583.5 248.269 582.269 249.5 580.75 249.5C579.231 249.5 578 248.269 578 246.75V225.889L555.194 248.694C554.12 249.768 552.38 249.768 551.306 248.694C550.232 247.62 550.232 245.88 551.306 244.806L574.111 222H553.25C551.731 222 550.5 220.769 550.5 219.25C550.5 217.731 551.731 216.5 553.25 216.5H580.75L581.031 216.515C582.418 216.655 583.5 217.826 583.5 219.25V246.75Z" fill="#3f81ff"/>
</g>
<g opacity="0.5">
<path d="M583.5 314.167C583.5 315.731 582.269 317 580.75 317C579.231 317 578 315.731 578 314.167V292.673L555.194 316.17C554.12 317.276 552.38 317.276 551.306 316.17C550.232 315.063 550.232 313.27 551.306 312.163L574.111 288.667H553.25C551.731 288.667 550.5 287.398 550.5 285.833C550.5 284.269 551.731 283 553.25 283H580.75L581.031 283.015C582.418 283.16 583.5 284.366 583.5 285.833V314.167Z" fill="#3f81ff"/>
</g>
<g opacity="0.4">
<path d="M583.5 380.75C583.5 382.269 582.269 383.5 580.75 383.5C579.231 383.5 578 382.269 578 380.75V359.889L555.194 382.694C554.12 383.768 552.38 383.768 551.306 382.694C550.232 381.62 550.232 379.88 551.306 378.806L574.111 356H553.25C551.731 356 550.5 354.769 550.5 353.25C550.5 351.731 551.731 350.5 553.25 350.5H580.75L581.031 350.515C582.418 350.655 583.5 351.826 583.5 353.25V380.75Z" fill="#3f81ff"/>
</g>
<g opacity="0.3">
<path d="M583.5 446.75C583.5 448.269 582.269 449.5 580.75 449.5C579.231 449.5 578 448.269 578 446.75V425.889L555.194 448.694C554.12 449.768 552.38 449.768 551.306 448.694C550.232 447.62 550.232 445.88 551.306 444.806L574.111 422H553.25C551.731 422 550.5 420.769 550.5 419.25C550.5 417.731 551.731 416.5 553.25 416.5H580.75L581.031 416.515C582.418 416.655 583.5 417.826 583.5 419.25V446.75Z" fill="#3f81ff"/>
</g>
<g opacity="0.3">
<path d="M583.5 514.167C583.5 515.731 582.269 517 580.75 517C579.231 517 578 515.731 578 514.167V492.673L555.194 516.17C554.12 517.276 552.38 517.276 551.306 516.17C550.232 515.063 550.232 513.27 551.306 512.163L574.111 488.667H553.25C551.731 488.667 550.5 487.398 550.5 485.833C550.5 484.269 551.731 483 553.25 483H580.75L581.031 483.015C582.418 483.16 583.5 484.366 583.5 485.833V514.167Z" fill="#3f81ff"/>
</g>
<g opacity="0.2">
<path d="M583.5 580.75C583.5 582.269 582.269 583.5 580.75 583.5C579.231 583.5 578 582.269 578 580.75V559.889L555.194 582.694C554.12 583.768 552.38 583.768 551.306 582.694C550.232 581.62 550.232 579.88 551.306 578.806L574.111 556H553.25C551.731 556 550.5 554.769 550.5 553.25C550.5 551.731 551.731 550.5 553.25 550.5H580.75L581.031 550.515C582.418 550.655 583.5 551.826 583.5 553.25V580.75Z" fill="#3f81ff"/>
</g>
</g>
<defs>
<clipPath id="clip0_547_27">
<rect width="600" height="600" fill="white"/>
</clipPath>
</defs>
</svg>
