<svg width="24" height="24" viewBox="0 0 24 24" fill="none" xmlns="http://www.w3.org/2000/svg">
<path d="M14.0185 12.8182L14.1549 9.06818L10.9844 11.0795L10.1663 9.64773L13.5072 7.90909L10.1663 6.17045L10.9844 4.73864L14.1549 6.75L14.0185 3H15.6549L15.5185 6.75L18.689 4.73864L19.5072 6.17045L16.1663 7.90909L19.5072 9.64773L18.689 11.0795L15.5185 9.06818L15.6549 12.8182H14.0185Z" fill="currentColor"/>
<path d="M5.53409 20.5911C5.11364 20.5911 4.75284 20.4406 4.4517 20.1394C4.15057 19.8383 4 19.4775 4 19.057C4 18.6366 4.15057 18.2758 4.4517 17.9747C4.75284 17.6735 5.11364 17.5229 5.53409 17.5229C5.95455 17.5229 6.31534 17.6735 6.61648 17.9747C6.91761 18.2758 7.06818 18.6366 7.06818 19.057C7.06818 19.3354 6.99716 19.5911 6.85511 19.8241C6.71875 20.057 6.53409 20.2445 6.30114 20.3866C6.07386 20.5229 5.81818 20.5911 5.53409 20.5911Z" fill="currentColor"/>
</svg>
