<svg width="24" height="24" viewBox="0 0 24 24" fill="none" xmlns="http://www.w3.org/2000/svg">
<path d="M5 12.408V11.2922C5.75797 11.2922 6.28373 11.1646 6.57728 10.9092C6.87083 10.6539 7.0176 10.2412 7.0176 9.67132V8.44453C7.0176 7.7599 7.12933 7.2122 7.35278 6.80142C7.5806 6.38694 7.89606 6.07423 8.29914 5.86329C8.70661 5.65235 9.18855 5.51172 9.74498 5.44141C10.3014 5.37109 10.9104 5.33594 11.572 5.33594V7.10118C11.055 7.10118 10.6607 7.15854 10.389 7.27326C10.1218 7.38428 9.93995 7.55821 9.84356 7.79506C9.74717 8.0282 9.69898 8.32426 9.69898 8.68323V10.3041C9.69898 10.5854 9.63764 10.8537 9.51496 11.109C9.39229 11.3607 9.16446 11.5846 8.83148 11.7807C8.49849 11.9732 8.02312 12.1267 7.40535 12.2415C6.78758 12.3525 5.9858 12.408 5 12.408ZM11.572 19.3857C10.9104 19.3857 10.3014 19.3505 9.74498 19.2802C9.18855 19.2099 8.70661 19.0693 8.29914 18.8583C7.89606 18.6474 7.5806 18.3347 7.35278 17.9202C7.12933 17.5094 7.0176 16.9617 7.0176 16.2771V15.0447C7.0176 14.4748 6.87083 14.0622 6.57728 13.8069C6.28373 13.5515 5.75797 13.4238 5 13.4238V12.3081C5.9858 12.3081 6.78758 12.3654 7.40535 12.4802C8.02312 12.5912 8.49849 12.7448 8.83148 12.9409C9.16446 13.1333 9.39229 13.3572 9.51496 13.6126C9.63764 13.8642 9.69898 14.1325 9.69898 14.4175V16.0384C9.69898 16.3937 9.74717 16.6879 9.84356 16.921C9.93995 17.1579 10.1218 17.3318 10.389 17.4428C10.6607 17.5575 11.055 17.6149 11.572 17.6149V19.3857ZM5 13.4238V11.2922H7.35935V13.4238H5Z" fill="currentColor"/>
<path d="M19 12.3081V13.4238C18.2464 13.4238 17.7207 13.5515 17.4227 13.8069C17.1292 14.0622 16.9824 14.4748 16.9824 15.0447V16.2771C16.9824 16.9617 16.8685 17.5094 16.6407 17.9202C16.4172 18.3347 16.1017 18.6474 15.6943 18.8583C15.2912 19.0693 14.8114 19.2099 14.255 19.2802C13.703 19.3505 13.094 19.3857 12.428 19.3857V17.6149C12.945 17.6149 13.3371 17.5575 13.6044 17.4428C13.876 17.3318 14.06 17.1579 14.1564 16.921C14.2528 16.6879 14.301 16.3937 14.301 16.0384V14.4175C14.301 14.1325 14.3624 13.8642 14.485 13.6126C14.6077 13.3572 14.8355 13.1333 15.1685 12.9409C15.5015 12.7448 15.9769 12.5912 16.5946 12.4802C17.2124 12.3654 18.0142 12.3081 19 12.3081ZM12.428 5.33594C13.094 5.33594 13.703 5.37109 14.255 5.44141C14.8114 5.51172 15.2912 5.65235 15.6943 5.86329C16.1017 6.07423 16.4172 6.38694 16.6407 6.80142C16.8685 7.2122 16.9824 7.7599 16.9824 8.44453V9.67132C16.9824 10.2412 17.1292 10.6539 17.4227 10.9092C17.7207 11.1646 18.2464 11.2922 19 11.2922V12.408C18.0142 12.408 17.2124 12.3525 16.5946 12.2415C15.9769 12.1267 15.5015 11.9732 15.1685 11.7807C14.8355 11.5846 14.6077 11.3607 14.485 11.109C14.3624 10.8537 14.301 10.5854 14.301 10.3041V8.68323C14.301 8.32426 14.2528 8.0282 14.1564 7.79506C14.06 7.55821 13.876 7.38428 13.6044 7.27326C13.3371 7.15854 12.945 7.10118 12.428 7.10118V5.33594ZM19 11.2922V13.4238H16.6407V11.2922H19Z" fill="currentColor"/>
</svg>
