<svg width="24" height="24" viewBox="0 0 24 24" fill="none" xmlns="http://www.w3.org/2000/svg">
<path d="M16.696 20.5911C16.2755 20.5911 15.9147 20.4406 15.6136 20.1394C15.3124 19.8383 15.1619 19.4775 15.1619 19.057C15.1619 18.6366 15.3124 18.2758 15.6136 17.9747C15.9147 17.6735 16.2755 17.5229 16.696 17.5229C17.1164 17.5229 17.4772 17.6735 17.7783 17.9747C18.0795 18.2758 18.23 18.6366 18.23 19.057C18.23 19.3354 18.159 19.5911 18.017 19.8241C17.8806 20.057 17.696 20.2445 17.463 20.3866C17.2357 20.5229 16.98 20.5911 16.696 20.5911Z" fill="currentColor"/>
<path d="M9.85227 12.8182L9.98864 9.06818L6.81818 11.0795L6 9.64773L9.34091 7.90909L6 6.17045L6.81818 4.73864L9.98864 6.75L9.85227 3H11.4886L11.3523 6.75L14.5227 4.73864L15.3409 6.17045L12 7.90909L15.3409 9.64773L14.5227 11.0795L11.3523 9.06818L11.4886 12.8182H9.85227Z" fill="currentColor"/>
</svg>
